<svg width="32" height="32" viewBox="0 0 32 32" fill="none" xmlns="http://www.w3.org/2000/svg">
<path fill-rule="evenodd" clip-rule="evenodd" d="M15.9863 2.66667C21.8728 2.66667 26.6663 7.33494 26.6663 13.0602C26.6663 15.1729 26.0109 17.2152 24.7704 18.9902L24.6582 19.1463C24.6427 19.1659 24.6283 19.1829 24.6143 19.1982L24.5727 19.2394L17.262 28.7178C16.9634 29.103 16.4913 29.3333 15.9863 29.3333C15.5646 29.3333 15.1771 29.1732 14.8659 28.8958L14.6794 28.7086L7.43064 19.2478C7.37961 19.1981 7.34589 19.1554 7.3128 19.1007L7.27301 19.0283L7.03796 18.6874C6.07566 17.2282 5.5104 15.5986 5.36854 13.8929L5.3419 13.465L5.33301 13.0342C5.33301 7.31776 10.1174 2.66667 15.9863 2.66667ZM15.9863 4.87805C11.3556 4.87805 7.57301 8.54517 7.57301 13.0602C7.57301 14.7284 8.10709 16.3559 9.07538 17.7213L9.10286 17.7491L9.16367 17.8381L15.9863 26.7226L22.8757 17.7665L22.8854 17.7404C23.7939 16.4575 24.3154 14.9709 24.3903 13.4429L24.3997 13.0602C24.3997 8.55297 20.6249 4.87805 15.9863 4.87805ZM17.3197 11.4469V8.50732H14.653V11.4469L11.6397 11.4472V14.0488L14.653 14.0485V16.9626H17.3197V14.0485L20.3063 14.0488V11.4472L17.3197 11.4469Z" fill="#CFD8DC"/>
</svg>
