<svg width="32" height="32" viewBox="0 0 32 32" fill="none" xmlns="http://www.w3.org/2000/svg">
<path fill-rule="evenodd" clip-rule="evenodd" d="M29.1631 15.3528L25.0942 9.09753C24.9017 8.80157 24.5742 8.6233 24.223 8.6233H19.1612V6.3832C19.1612 5.80335 18.6949 5.33333 18.1195 5.33333H3.70866C3.13335 5.33333 2.66699 5.80335 2.66699 6.3832V23.5171C2.66699 24.0969 3.13335 24.5669 3.70866 24.5669H7.01283C7.44283 25.7889 8.60069 26.6667 9.95866 26.6667C11.3166 26.6667 12.4744 25.7889 12.9045 24.5669H20.2601C20.6901 25.7889 21.8479 26.6667 23.2059 26.6667C24.5639 26.6667 25.7217 25.7889 26.1517 24.5669H28.292C28.8673 24.5669 29.3337 24.0969 29.3337 23.5171V15.9284C29.3337 15.7239 29.2744 15.5238 29.1631 15.3528ZM9.95866 24.5669C9.38428 24.5669 8.91699 24.096 8.91699 23.5171C8.91699 22.9382 9.38428 22.4672 9.95866 22.4672C10.533 22.4672 11.0003 22.9382 11.0003 23.5171C11.0003 24.096 10.533 24.5669 9.95866 24.5669ZM17.0779 22.4672H12.9044C12.4744 21.2452 11.3166 20.3674 9.95861 20.3674C8.60064 20.3674 7.44283 21.2452 7.01277 22.4672H4.75033V7.43307H17.0779V22.4672ZM23.2059 24.5669C22.6315 24.5669 22.1642 24.096 22.1642 23.5171C22.1642 22.9382 22.6315 22.4672 23.2059 22.4672C23.7803 22.4672 24.2476 22.9382 24.2476 23.5171C24.2476 24.096 23.7803 24.5669 23.2059 24.5669ZM27.2503 22.4672H26.1517C25.7217 21.2452 24.5638 20.3674 23.2058 20.3674C21.8479 20.3674 20.6901 21.2452 20.26 22.4672H19.1612V10.723H23.6603L27.2503 16.2419V22.4672Z" fill="#CFD8DC"/>
</svg>
