<svg width="21" height="18" viewBox="0 0 21 18" fill="none" xmlns="http://www.w3.org/2000/svg">
<path fill-rule="evenodd" clip-rule="evenodd" d="M10.333 18C10.5445 18 10.8466 17.8627 11.0682 17.7353C16.7378 14.2059 20.333 10.098 20.333 5.92157C20.333 2.45098 17.8859 0 14.623 0C12.76 0 11.2494 0.862745 10.333 2.18627C9.43673 0.872549 7.90602 0 6.04298 0C2.78014 0 0.333008 2.45098 0.333008 5.92157C0.333008 10.098 3.92817 14.2059 9.60793 17.7353C9.81941 17.8627 10.1215 18 10.333 18ZM10.333 16.3431C10.2927 16.3431 10.2222 16.2941 10.1316 16.2255C5.91206 13.5 1.95436 9.56863 1.95436 5.92157C1.95436 3.31373 3.68648 1.57843 6.02284 1.57843C7.91609 1.57843 9.0037 2.72549 9.64821 3.70588C9.92012 4.09804 10.0913 4.20588 10.333 4.20588C10.5747 4.20588 10.7258 4.08824 11.0178 3.70588C11.7127 2.7451 12.76 1.57843 14.6432 1.57843C16.9795 1.57843 18.7117 3.31373 18.7117 5.92157C18.7117 9.56863 14.754 13.5 10.5445 16.2255C10.4438 16.2941 10.3733 16.3431 10.333 16.3431Z" fill="#263238"/>
</svg>
