<svg width="24" height="24" viewBox="0 0 24 24" fill="none" xmlns="http://www.w3.org/2000/svg">
<path fill-rule="evenodd" clip-rule="evenodd" d="M17.8671 22C19.6564 22 20.8323 21.5194 21.865 20.3538C21.9468 20.272 22.0286 20.18 22.1002 20.0982C22.7137 19.4131 23 18.7383 23 18.0941C23 17.3579 22.5706 16.6729 21.6605 16.0389L18.6851 13.9735C17.7648 13.3396 16.6912 13.268 15.8323 14.1167L15.045 14.904C14.8098 15.1391 14.6053 15.1494 14.3804 15.0062C13.8282 14.6586 12.7137 13.6872 11.9571 12.9306C11.1595 12.1433 10.3926 11.2639 9.98364 10.6198C9.85072 10.3846 9.86094 10.1903 10.0961 9.95516L10.8732 9.16785C11.7321 8.30897 11.6605 7.22514 11.0266 6.31513L8.96115 3.33971C8.3272 2.4297 7.64213 2.01048 6.90593 2.00026C6.26176 1.99003 5.58691 2.28655 4.90184 2.90004C4.80982 2.98184 4.72802 3.05341 4.64622 3.12499C3.48057 4.16792 3 5.34377 3 7.11266C3 10.037 4.79959 13.5952 8.10225 16.8978C11.3845 20.18 14.953 22 17.8671 22ZM17.8773 20.4254C15.2699 20.4765 11.9264 18.4724 9.27812 15.8344C6.60941 13.176 4.51329 9.71999 4.56442 7.11266C4.58487 5.98793 4.98364 5.01658 5.78119 4.32129C5.85276 4.25994 5.90389 4.20882 5.97546 4.15769C6.28221 3.89185 6.60941 3.7487 6.90593 3.7487C7.20245 3.7487 7.4683 3.86117 7.66258 4.16792L9.64622 7.14334C9.86094 7.46031 9.88139 7.81818 9.56442 8.13515L8.66462 9.03493C7.9591 9.74044 8.01023 10.5993 8.52147 11.2844C9.10429 12.0717 10.1166 13.2169 10.9039 13.994C11.681 14.7813 12.9182 15.8856 13.7157 16.4786C14.4008 16.9898 15.2597 17.041 15.9652 16.3355L16.865 15.4357C17.182 15.1187 17.5297 15.1391 17.8569 15.3436L20.8323 17.3273C21.1391 17.5318 21.2515 17.7874 21.2515 18.0941C21.2515 18.3906 21.1084 18.7178 20.8425 19.0246C20.7812 19.0962 20.7403 19.1473 20.6789 19.2188C19.9836 20.0164 19.0123 20.4049 17.8773 20.4254Z" fill="#87D4AB"/>
</svg>
