<svg width="24" height="24" viewBox="0 0 24 24" fill="none" xmlns="http://www.w3.org/2000/svg">
<path fill-rule="evenodd" clip-rule="evenodd" d="M12.4276 2C15.313 2 17.6755 4.31001 17.7891 7.17258L17.7933 7.38828L17.7927 8.03515L18.5481 8.03598C19.2425 8.03598 19.8231 8.53198 19.9501 9.18614L19.9694 9.31899L19.9759 9.45544V12.0987C19.9759 12.835 19.4083 13.4426 18.6854 13.5116L18.5481 13.5181L17.0083 13.518L16.9021 13.6772C16.5514 14.1743 16.1126 14.6419 15.6121 15.0618L15.3568 15.2677L15.1777 15.4006L15.1797 15.4479C15.2366 16.1485 15.7125 16.6916 16.3707 16.8097L16.5047 16.8276L16.6432 16.8336C20.1771 16.8336 22 18.0361 22 21.2118C22 21.6471 21.645 22 21.207 22C20.7692 22 20.4141 21.647 20.4141 21.2118C20.4141 18.9866 19.3809 18.4099 16.6432 18.4099C16.2196 18.4099 15.8077 18.3233 15.4275 18.1586L15.3516 18.1219L12.2708 20.3408C12.0564 20.5021 11.7771 20.542 11.53 20.4555L11.4264 20.4106L11.3283 20.3502L8.38389 18.2299L8.27181 18.2705C8.1251 18.3164 7.97481 18.3513 7.82196 18.3747L7.5909 18.401L7.35675 18.4099C4.61914 18.4099 3.58585 18.9867 3.58585 21.2118C3.58585 21.6471 3.23082 22 2.793 22C2.35512 22 2 21.6471 2 21.2118C2 18.0361 3.82296 16.8336 7.35675 16.8336C8.07901 16.8336 8.68952 16.3066 8.80596 15.6134L8.80869 15.5902L8.63461 15.4723C8.00224 15.0226 7.45155 14.4968 7.0269 13.923L6.85276 13.6742L6.75582 13.518L5.45189 13.5181C4.7575 13.5181 4.17688 13.0221 4.04987 12.368L4.03062 12.2351L4.02407 12.0987V9.45544C4.02407 8.71906 4.59168 8.11143 5.31462 8.0425L5.45189 8.03598L6.20655 8.03515L6.20682 7.38813C6.20682 4.57298 8.38269 2.24109 11.1382 2.01754L11.3569 2.0043L11.5723 2H12.4276ZM13.7912 16.4606L13.7255 16.2697L13.7146 16.2761C13.0309 16.5975 12.388 16.7806 11.9268 16.7806C11.5372 16.7806 11.0395 16.6711 10.5039 16.4717L10.2412 16.368L10.172 16.551C10.0893 16.7454 9.98645 16.9306 9.86526 17.1037L9.74325 17.2646L11.7922 18.7396L14.1118 17.0701L14.1007 17.0541C13.9759 16.8681 13.872 16.6691 13.7912 16.4606ZM11.8979 7.29172L11.7981 7.36875C10.6633 8.19045 9.28008 8.61004 7.86059 8.54079L7.79115 8.53502L7.78357 12.0052C7.98976 12.66 8.46269 13.2951 9.12358 13.8553L9.32741 14.0211C10.2311 14.7267 11.3237 15.2045 11.9268 15.2045C12.5442 15.2045 13.7775 14.5899 14.736 13.7368L14.9266 13.5607L14.9683 13.518H13.6781L13.6559 13.5449C13.466 13.7437 13.2118 13.872 12.9342 13.9045L12.7937 13.9128C12.1366 13.9128 11.604 13.3832 11.604 12.7301C11.604 12.0768 12.1365 11.5472 12.7937 11.5472C13.1253 11.5472 13.4344 11.6832 13.656 11.9152L13.6791 11.9418H16.2071V8.5193L16.1359 8.52791C14.664 8.64568 13.2016 8.23769 12.0094 7.37705L11.8979 7.29172ZM6.50539 10.21C6.50539 9.87993 6.2378 9.61234 5.90771 9.61234C5.57761 9.61234 5.31002 9.87993 5.31002 10.21V11.3431C5.31002 11.6732 5.57761 11.9408 5.90771 11.9408C6.2378 11.9408 6.50539 11.6732 6.50539 11.3431V10.21ZM18.6877 10.209C18.6877 9.87949 18.4206 9.61234 18.0911 9.61234C17.7615 9.61234 17.4944 9.87949 17.4944 10.209V11.3441C17.4944 11.6737 17.7615 11.9408 18.0911 11.9408C18.4206 11.9408 18.6877 11.6737 18.6877 11.3441V10.209ZM14.1305 3.9861L14.1109 4.0653C13.9051 4.79867 13.5648 5.48128 13.1092 6.08462L13.0389 6.17119L13.0768 6.19837C13.9701 6.7935 15.0455 7.05972 16.1174 6.94948L16.1804 6.94113L16.1778 6.91196C16.0284 5.71499 15.3202 4.66412 14.2938 4.07398L14.1305 3.9861ZM12.4276 3.57648H11.5723C9.70638 3.57648 8.14471 4.94998 7.8446 6.75703L7.81585 6.96077L7.83907 6.96315C9.96865 7.11052 11.92 5.77078 12.5474 3.77024L12.6013 3.5805L12.4276 3.57648Z" fill="#87D4AB"/>
</svg>
