<svg width="24" height="24" viewBox="0 0 24 24" fill="none" xmlns="http://www.w3.org/2000/svg">
<path fill-rule="evenodd" clip-rule="evenodd" d="M19.4275 20C21.058 20 22 19.0946 22 17.3012V7.69008C22 5.9054 21.0489 5 19.1558 5H4.57246C2.94203 5 2 5.89669 2 7.69008V17.3012C2 19.1033 2.95109 20 4.8442 20H19.4275ZM12.0181 13.4794C11.6558 13.4794 11.3025 13.314 10.9221 12.9396L4.08333 6.45386C4.28261 6.37551 4.51812 6.33198 4.78986 6.33198H19.2101C19.4909 6.33198 19.7355 6.37551 19.9348 6.47127L13.1141 12.9396C12.7246 13.314 12.3714 13.4794 12.0181 13.4794ZM3.39493 17.4492C3.38587 17.4057 3.38587 17.3535 3.38587 17.3012V7.60302L8.5942 12.5131L3.39493 17.4492ZM20.6141 17.4231L15.442 12.5131L20.6141 7.62914V17.4231ZM19.2101 18.668H4.78986C4.53623 18.668 4.30978 18.6332 4.12862 18.5548L9.54529 13.4097L10.1341 13.9669C10.7681 14.5676 11.375 14.8201 12.0181 14.8201C12.6522 14.8201 13.2681 14.5676 13.9022 13.9669L14.4909 13.4097L19.8986 18.5461C19.6993 18.6332 19.4728 18.668 19.2101 18.668Z" fill="#87D4AB"/>
</svg>
