<svg width="24" height="24" viewBox="0 0 24 24" fill="none" xmlns="http://www.w3.org/2000/svg">
<g opacity="0.6">
<path fill-rule="evenodd" clip-rule="evenodd" d="M12 20C16.3765 20 20 16.3765 20 12C20 7.63137 16.3686 4 11.9922 4C7.62353 4 4 7.63137 4 12C4 16.3765 7.63137 20 12 20ZM14.8078 15.4824C14.6196 15.4824 14.4549 15.4039 14.3373 15.2863L11.9922 12.9333L9.6549 15.2863C9.53725 15.4118 9.37255 15.4824 9.18431 15.4824C8.82353 15.4824 8.52549 15.1843 8.52549 14.8157C8.52549 14.6353 8.59608 14.4784 8.72157 14.3608L11.0667 12.0078L8.72157 9.6549C8.59608 9.5451 8.52549 9.38039 8.52549 9.2C8.52549 8.83922 8.82353 8.54902 9.18431 8.54902C9.37255 8.54902 9.52157 8.61961 9.63922 8.7451L11.9922 11.0902L14.3608 8.73726C14.4941 8.59608 14.6431 8.53333 14.8157 8.53333C15.1843 8.53333 15.4745 8.83137 15.4745 9.19216C15.4745 9.37255 15.4196 9.52157 15.2784 9.64706L12.9255 12.0078L15.2706 14.3451C15.3961 14.4706 15.4667 14.6275 15.4667 14.8157C15.4667 15.1843 15.1765 15.4824 14.8078 15.4824Z" fill="#7B8E98"/>
</g>
</svg>
