<svg width="21" height="20" viewBox="0 0 21 20" fill="none" xmlns="http://www.w3.org/2000/svg">
<path fill-rule="evenodd" clip-rule="evenodd" d="M4.83398 7.4437C4.83398 7.00622 5.17596 6.66669 5.61001 6.66669C5.82703 6.66669 6.02433 6.75157 6.17559 6.90175L10.6739 11.4724L15.1591 6.90175C15.3103 6.75157 15.5142 6.66669 15.7246 6.66669C16.1587 6.66669 16.5007 7.00622 16.5007 7.4437C16.5007 7.65265 16.4217 7.83548 16.2771 7.97913L11.2789 13.0591C11.1079 13.2419 10.8975 13.3334 10.6673 13.3334C10.4371 13.3334 10.2398 13.2419 10.0623 13.0656L5.05758 7.98566C4.9129 7.83548 4.83398 7.65265 4.83398 7.4437Z" fill="white"/>
</svg>
