<svg width="24" height="24" viewBox="0 0 24 24" fill="none" xmlns="http://www.w3.org/2000/svg">
<path fill-rule="evenodd" clip-rule="evenodd" d="M7.05417 0.0723982C8.3341 0.0138128 8.7428 0 12.0019 0L12 0.00190522C15.2592 0.00190522 15.6707 0.0161943 16.9478 0.0743034C18.2249 0.132412 19.0971 0.335318 19.8607 0.634437C20.6611 0.934978 21.3864 1.40634 21.9861 2.01572C22.5964 2.61524 23.0687 3.34047 23.3703 4.14099C23.6666 4.9045 23.87 5.77376 23.9281 7.05358C23.9863 8.33341 24.0001 8.74208 24.0001 12.001C24.0001 15.2598 23.9867 15.6713 23.9281 16.9483C23.8696 18.2253 23.6666 19.0988 23.3703 19.8609C22.7468 21.4726 21.4725 22.7468 19.8607 23.3703C19.0971 23.6666 18.2277 23.87 16.9478 23.9281C15.6679 23.9862 15.2592 24 12 24C8.7409 24 8.32934 23.9867 7.05226 23.9281C5.77518 23.8695 4.90157 23.6666 4.13942 23.3703C3.33884 23.0687 2.61355 22.5964 2.01398 21.9862C1.40369 21.3868 0.931465 20.6615 0.630202 19.8609C0.33344 19.0974 0.130994 18.2281 0.0724042 16.9483C0.013814 15.6685 0 15.2598 0 12.001C0 8.74208 0.0142903 8.33055 0.0724042 7.05358C0.130518 5.77661 0.33344 4.9045 0.632584 4.14099C0.933149 3.34062 1.40455 2.61537 2.01398 2.01572C2.61344 1.40548 3.33877 0.933294 4.13942 0.632055C4.903 0.335318 5.77423 0.130984 7.05417 0.0723982ZM16.8492 2.23387C15.5836 2.17623 15.2044 2.16385 12 2.16385L12.0019 2.16194C8.79758 2.16194 8.41841 2.17433 7.15277 2.23196C5.98287 2.28531 5.34743 2.48059 4.92444 2.64492C4.40258 2.83705 3.93051 3.14387 3.54304 3.54275C3.14413 3.93018 2.83728 4.40221 2.64513 4.92403C2.4808 5.34699 2.28549 5.98238 2.23214 7.15218C2.17451 8.41772 2.16212 8.79686 2.16212 12.001C2.16212 15.205 2.17451 15.5842 2.23214 16.8497C2.28549 18.0195 2.4808 18.6549 2.64513 19.0779C2.83728 19.5997 3.14413 20.0717 3.54304 20.4592C3.93051 20.858 4.40258 21.1649 4.92444 21.357C5.34743 21.5213 5.98287 21.7166 7.15277 21.7699C8.41794 21.8276 8.79758 21.84 12.0019 21.84C15.2063 21.84 15.5859 21.8276 16.8511 21.7699C18.021 21.7166 18.6565 21.5213 19.0794 21.357C20.1257 20.9529 20.9527 20.1259 21.3568 19.0798C21.5212 18.6568 21.7165 18.0214 21.7698 16.8516C21.8275 15.5861 21.8399 15.207 21.8399 12.0029C21.8399 8.79876 21.8275 8.41962 21.7698 7.15408C21.7165 5.98428 21.5212 5.34889 21.3568 4.92593C21.1647 4.40412 20.8578 3.93209 20.4589 3.54465C20.0715 3.14578 19.5994 2.83896 19.0775 2.64682C18.6546 2.4825 18.0191 2.28721 16.8492 2.23387ZM6.30663 9.64347C7.26043 7.34085 9.50751 5.83949 12 5.83949C13.6344 5.83923 15.2019 6.48829 16.3577 7.64383C17.5134 8.79937 18.1626 10.3667 18.1625 12.001C18.1627 14.4933 16.6614 16.7403 14.3586 17.6942C12.0559 18.6481 9.40524 18.121 7.64269 16.3587C5.88015 14.5965 5.35283 11.9461 6.30663 9.64347ZM7.99875 11.9995C7.99875 14.2092 9.79019 16.0005 12 16.0005C14.2099 16.0005 16.0013 14.2092 16.0013 11.9995C16.0013 9.78986 14.2099 7.99857 12 7.99857C9.79019 7.99857 7.99875 9.78986 7.99875 11.9995ZM18.4059 7.03548C19.2012 7.03548 19.8459 6.39083 19.8459 5.59562C19.8459 4.8004 19.2012 4.15575 18.4059 4.15575C17.6106 4.15575 16.9659 4.8004 16.9659 5.59562C16.9659 6.39083 17.6106 7.03548 18.4059 7.03548Z" fill="white"/>
</svg>
