<svg width="24" height="24" viewBox="0 0 24 24" fill="none" xmlns="http://www.w3.org/2000/svg">
<path fill-rule="evenodd" clip-rule="evenodd" d="M5.09918 8.25099C5.71069 8.25099 6.19836 7.75165 6.19836 7.1255C6.19836 6.50727 5.71069 6 5.09918 6C4.4954 6 4 6.50727 4 7.1255C4 7.75165 4.4954 8.25099 5.09918 8.25099ZM19.2492 7.88639C19.6672 7.88639 20 7.5535 20 7.1255C20 6.69749 19.6749 6.3646 19.2492 6.3646H8.7373C8.32704 6.3646 7.99419 6.69749 7.99419 7.1255C7.99419 7.5535 8.3193 7.88639 8.7373 7.88639H19.2492ZM5.09918 13.1255C5.71069 13.1255 6.19836 12.6262 6.19836 12C6.19836 11.3818 5.71069 10.8745 5.09918 10.8745C4.4954 10.8745 4 11.3818 4 12C4 12.6262 4.4954 13.1255 5.09918 13.1255ZM19.2492 12.7609C19.6672 12.7609 20 12.428 20 12C20 11.572 19.6749 11.2391 19.2492 11.2391H8.7373C8.32704 11.2391 7.99419 11.572 7.99419 12C7.99419 12.428 8.3193 12.7609 8.7373 12.7609H19.2492ZM5.09918 18C5.71069 18 6.19836 17.5007 6.19836 16.8745C6.19836 16.2563 5.71069 15.749 5.09918 15.749C4.4954 15.749 4 16.2563 4 16.8745C4 17.5007 4.4954 18 5.09918 18ZM19.2492 17.6354C19.6672 17.6354 20 17.3025 20 16.8745C20 16.4465 19.6749 16.1136 19.2492 16.1136H8.7373C8.32704 16.1136 7.99419 16.4465 7.99419 16.8745C7.99419 17.3025 8.3193 17.6354 8.7373 17.6354H19.2492Z" fill="#263238"/>
</svg>
