<svg width="17" height="17" viewBox="0 0 17 17" fill="none" xmlns="http://www.w3.org/2000/svg">
<path fill-rule="evenodd" clip-rule="evenodd" d="M10.6732 13.4583C11.0451 13.4583 11.3337 13.1676 11.3337 12.7987C11.3337 12.6142 11.2615 12.4465 11.1339 12.318L7.24877 8.4944L11.1339 4.68202C11.2615 4.55345 11.3337 4.38016 11.3337 4.20128C11.3337 3.83234 11.0451 3.54166 10.6732 3.54166C10.4956 3.54166 10.3402 3.60874 10.2181 3.73172L5.9001 7.98012C5.74469 8.12546 5.66699 8.30434 5.66699 8.49999C5.66699 8.69564 5.74469 8.86334 5.89455 9.01427L10.2125 13.2683C10.3402 13.3912 10.4956 13.4583 10.6732 13.4583Z" fill="#7B8E98"/>
</svg>
