<svg width="21" height="20" viewBox="0 0 21 20" fill="none" xmlns="http://www.w3.org/2000/svg">
<path fill-rule="evenodd" clip-rule="evenodd" d="M13.7624 3.75C13.0289 3.75 12.4198 4.28349 12.3139 4.97705L11.8685 5.41561C11.0933 6.17891 9.9516 6.63462 8.81445 6.63462H5.88477C5.24821 6.63462 4.70547 7.03657 4.50391 7.59615H4.41992C3.34297 7.59615 2.4668 8.45885 2.4668 9.51923C2.4668 10.5796 3.34297 11.4423 4.41992 11.4423H4.50391C4.65127 11.8514 4.98099 12.1761 5.39648 12.3212V14.8077C5.39648 15.603 6.05365 16.25 6.86136 16.25C7.66904 16.25 8.32617 15.603 8.32617 14.8077V12.4038H8.81445C9.95156 12.4038 11.0932 12.8596 11.8685 13.6229L12.3139 14.0614C12.4198 14.7549 13.029 15.2885 13.7624 15.2885C14.5701 15.2885 15.2272 14.6414 15.2272 13.8462V5.19231C15.2272 4.39702 14.5701 3.75 13.7624 3.75ZM4.41992 10.4808C3.88145 10.4808 3.44336 10.0494 3.44336 9.51923C3.44336 8.98904 3.88145 8.55769 4.41992 8.55769V10.4808ZM6.86133 15.2885C7.13057 15.2885 7.34961 15.0728 7.34961 14.8077V12.4038H6.37305V14.8077C6.37305 15.0728 6.59209 15.2885 6.86133 15.2885ZM8.32617 11.4423H5.88477C5.61553 11.4423 5.39648 11.2266 5.39648 10.9615V8.07692C5.39648 7.81183 5.61553 7.59615 5.88477 7.59615H8.32617V11.4423ZM9.29948 11.4641C10.412 11.5637 11.4726 12.0004 12.2975 12.7034V6.33503C11.4726 7.03801 10.412 7.47478 9.29951 7.57433L9.29948 11.4641ZM14.2507 13.8462C14.2507 14.1113 14.0316 14.3269 13.7624 14.3269H13.7624C13.4931 14.3269 13.2741 14.1113 13.2741 13.8462V5.19231C13.2741 4.92721 13.4931 4.71154 13.7624 4.71154C14.0316 4.71154 14.2507 4.92721 14.2507 5.19231V13.8462ZM18.0139 6.77545C17.8232 6.58772 17.514 6.58772 17.3233 6.77545L16.3468 7.73699C16.1561 7.92474 16.1561 8.22913 16.3468 8.41689C16.5375 8.60465 16.8466 8.60462 17.0373 8.41689L18.0139 7.45535C18.2046 7.2676 18.2046 6.9632 18.0139 6.77545ZM17.1803 9.51923H18.6452C18.9148 9.51923 19.1335 9.73449 19.1335 10C19.1335 10.2655 18.9148 10.4808 18.6452 10.4808H17.1803C16.9107 10.4808 16.6921 10.2655 16.6921 10C16.6921 9.73449 16.9107 9.51923 17.1803 9.51923ZM17.0373 11.5831L18.0139 12.5447C18.2046 12.7324 18.2046 13.0368 18.0139 13.2246C17.8232 13.4123 17.514 13.4123 17.3234 13.2246L16.3468 12.263C16.1561 12.0753 16.1561 11.7709 16.3468 11.5831C16.5375 11.3954 16.8467 11.3954 17.0373 11.5831Z" fill="white"/>
</svg>
