<svg width="21" height="20" viewBox="0 0 21 20" fill="none" xmlns="http://www.w3.org/2000/svg">
<path fill-rule="evenodd" clip-rule="evenodd" d="M15.4888 18.3334C16.98 18.3334 17.9599 17.9329 18.8205 16.9615C18.8886 16.8934 18.9568 16.8167 19.0164 16.7485C19.5277 16.1776 19.7663 15.6153 19.7663 15.0785C19.7663 14.465 19.4084 13.8941 18.6501 13.3658L16.1705 11.6446C15.4036 11.1163 14.5089 11.0567 13.7932 11.7639L13.1371 12.42C12.9411 12.616 12.7707 12.6245 12.5832 12.5052C12.1231 12.2155 11.1944 11.406 10.5638 10.7755C9.8992 10.1194 9.26014 9.38664 8.91931 8.84984C8.80854 8.65386 8.81706 8.49197 9.01304 8.29599L9.66062 7.6399C10.3764 6.92416 10.3167 6.02097 9.78843 5.26263L8.06723 2.78311C7.53894 2.02477 6.96805 1.67542 6.35455 1.6669C5.81774 1.65838 5.25537 1.90548 4.68448 2.41672C4.60779 2.48489 4.53962 2.54453 4.47146 2.60418C3.50009 3.47328 3.09961 4.45316 3.09961 5.92724C3.09961 8.36416 4.59927 11.3294 7.35148 14.0815C10.0867 16.8167 13.0604 18.3334 15.4888 18.3334ZM15.4974 17.0212C13.3246 17.0638 10.5383 15.3937 8.33138 13.1954C6.10745 10.98 4.36069 8.10001 4.40329 5.92724C4.42033 4.98997 4.75264 4.1805 5.41726 3.60109C5.47691 3.54997 5.51951 3.50737 5.57916 3.46476C5.83478 3.24323 6.10745 3.12394 6.35455 3.12394C6.60165 3.12394 6.82319 3.21766 6.98509 3.47328L8.63812 5.9528C8.81706 6.21694 8.8341 6.51517 8.56996 6.77931L7.82013 7.52913C7.23219 8.11706 7.2748 8.83279 7.70084 9.40368C8.18652 10.0598 9.03008 11.0141 9.68618 11.6617C10.3338 12.3178 11.3648 13.238 12.0294 13.7322C12.6003 14.1582 13.316 14.2008 13.904 13.6129L14.6538 12.8631C14.9179 12.5989 15.2077 12.616 15.4803 12.7864L17.9599 14.4394C18.2155 14.6098 18.3092 14.8228 18.3092 15.0785C18.3092 15.3256 18.1899 15.5982 17.9684 15.8538C17.9173 15.9135 17.8832 15.9561 17.8321 16.0157C17.2526 16.6803 16.4432 17.0041 15.4974 17.0212Z" fill="white"/>
</svg>
