<svg width="20" height="20" viewBox="0 0 20 20" fill="none" xmlns="http://www.w3.org/2000/svg">
<path fill-rule="evenodd" clip-rule="evenodd" d="M9.99134 1.66669C13.6704 1.66669 16.6663 4.58436 16.6663 8.16262C16.6663 9.48308 16.2567 10.7595 15.4813 11.8689L15.4112 11.9664C15.4016 11.9787 15.3926 11.9893 15.3838 11.9989L15.3578 12.0246L10.7887 17.9486C10.602 18.1894 10.3069 18.3334 9.99134 18.3334C9.72775 18.3334 9.48554 18.2333 9.29105 18.0599L9.17451 17.9429L4.64403 12.0299C4.61213 11.9988 4.59106 11.9721 4.57038 11.9379L4.54551 11.8927L4.3986 11.6796C3.79717 10.7676 3.44388 9.74916 3.35521 8.68309L3.33857 8.41561L3.33301 8.14636C3.33301 4.57362 6.32327 1.66669 9.99134 1.66669ZM9.99134 3.0488C7.09716 3.0488 4.73301 5.34075 4.73301 8.16262C4.73301 9.20529 5.06681 10.2225 5.67199 11.0758L5.68916 11.0932L5.72717 11.1488L9.99134 16.7016L14.2972 11.1041L14.3033 11.0877C14.8711 10.286 15.197 9.3568 15.2438 8.40184L15.2497 8.16262C15.2497 5.34563 12.8905 3.0488 9.99134 3.0488ZM10.8247 7.15433V5.31709H9.15801V7.15433L7.27467 7.15449V8.78051L9.15801 8.78034V10.6016H10.8247V8.78034L12.6913 8.78051V7.15449L10.8247 7.15433Z" fill="white"/>
</svg>
