<svg width="21" height="20" viewBox="0 0 21 20" fill="none" xmlns="http://www.w3.org/2000/svg">
<path fill-rule="evenodd" clip-rule="evenodd" d="M18.5763 9.61654L17.162 8.18832L17.6727 6.24428C17.7487 5.95518 17.5776 5.65886 17.2893 5.58012L15.3503 5.0504L14.8206 3.11147C14.7418 2.82316 14.4456 2.65206 14.1564 2.72801L12.2124 3.23875L10.7842 1.82443C10.5718 1.61411 10.2296 1.61411 10.0173 1.82443L8.58903 3.23875L6.64498 2.72804C6.35582 2.65209 6.0596 2.82319 5.98082 3.1115L5.4511 5.05043L3.51217 5.58015C3.22385 5.65893 3.05276 5.95525 3.1287 6.24431L3.63941 8.18835L2.22512 9.61654C2.0148 9.82894 2.0148 10.1711 2.22512 10.3835L3.63945 11.8117L3.12874 13.7557C3.05279 14.0448 3.22389 14.3411 3.5122 14.4199L5.45113 14.9496L5.98085 16.8885C6.05963 17.1768 6.35589 17.348 6.64501 17.272L8.58906 16.7613L10.0173 18.1756C10.1235 18.2808 10.2621 18.3334 10.4007 18.3334C10.5394 18.3334 10.678 18.2808 10.7842 18.1756L12.2124 16.7613L14.1565 17.272C14.4456 17.3479 14.7419 17.1768 14.8206 16.8885L15.3504 14.9496L17.2893 14.4199C17.5776 14.3411 17.7487 14.0448 17.6728 13.7557L17.162 11.8117L18.5763 10.3835C18.7866 10.1711 18.7866 9.82894 18.5763 9.61654ZM16.1687 11.2658C16.033 11.4028 15.9798 11.6012 16.0288 11.7877L16.4814 13.5107L14.763 13.9802C14.577 14.031 14.4317 14.1763 14.3809 14.3623L13.9114 16.0807L12.1884 15.6281C12.0019 15.5791 11.8035 15.6323 11.6665 15.768L10.4007 17.0214L9.13492 15.768C9.03157 15.6656 8.89326 15.6102 8.75143 15.6102C8.7053 15.6102 8.65879 15.6161 8.61302 15.6281L6.89003 16.0807L6.42057 14.3623C6.36979 14.1763 6.22447 14.031 6.03847 13.9802L4.32005 13.5107L4.77265 11.7878C4.82164 11.6013 4.76845 11.4028 4.63277 11.2658L3.37935 10L4.63277 8.73425C4.76845 8.59723 4.82164 8.3988 4.77265 8.21231L4.32005 6.48926L6.03847 6.0198C6.22444 5.96902 6.36975 5.8237 6.42057 5.6377L6.89003 3.91928L8.61302 4.37188C8.79951 4.42091 8.99795 4.36768 9.13496 4.23201L10.4007 2.97859L11.6665 4.23201C11.8035 4.36762 12.0019 4.42094 12.1884 4.37188L13.9114 3.91928L14.3809 5.6377C14.4317 5.82367 14.577 5.96898 14.763 6.0198L16.4814 6.48926L16.0288 8.21224C15.9798 8.3987 16.033 8.59717 16.1687 8.73418L17.4221 9.99997L16.1687 11.2658ZM8.22086 6.00355C7.2192 6.00355 6.40429 6.81846 6.40429 7.82012C6.40429 8.82178 7.2192 9.63669 8.22086 9.63669C9.22252 9.63669 10.0374 8.82178 10.0374 7.82012C10.0374 6.81846 9.22252 6.00355 8.22086 6.00355ZM8.22086 8.54675C7.82021 8.54675 7.49423 8.22074 7.49423 7.82012C7.49423 7.41947 7.82021 7.09349 8.22086 7.09349C8.62151 7.09349 8.94749 7.41947 8.94749 7.82012C8.94749 8.22077 8.62151 8.54675 8.22086 8.54675ZM10.7641 12.1799C10.7641 11.1782 11.579 10.3633 12.5806 10.3633C13.5823 10.3633 14.3972 11.1782 14.3972 12.1799C14.3972 13.1815 13.5823 13.9964 12.5806 13.9964C11.579 13.9964 10.7641 13.1815 10.7641 12.1799ZM11.854 12.1799C11.854 12.5805 12.18 12.9065 12.5806 12.9065C12.9812 12.9065 13.3073 12.5806 13.3073 12.1799C13.3073 11.7792 12.9813 11.4533 12.5806 11.4533C12.18 11.4533 11.854 11.7792 11.854 12.1799ZM12.5586 7.07146C12.7714 6.85863 13.1165 6.85863 13.3293 7.07146C13.5421 7.28428 13.5421 7.62933 13.3292 7.84216L8.2428 12.9285C8.13642 13.035 7.9969 13.0882 7.85748 13.0882C7.71806 13.0882 7.57858 13.035 7.47216 12.9285C7.25934 12.7157 7.25934 12.3707 7.47216 12.1578L12.5586 7.07146Z" fill="white"/>
</svg>
