<svg width="25" height="24" viewBox="0 0 25 24" fill="none" xmlns="http://www.w3.org/2000/svg">
<path fill-rule="evenodd" clip-rule="evenodd" d="M19.7238 20C20.2761 20 20.667 19.5792 20.667 19.0405C20.667 18.788 20.582 18.5523 20.3951 18.3672L16.393 14.3945C17.2342 13.3004 17.7355 11.9453 17.7355 10.4724C17.7355 6.91215 14.7955 4 11.2012 4C7.60698 4 4.66699 6.91215 4.66699 10.4724C4.66699 14.0326 7.60698 16.9448 11.2012 16.9448C12.6203 16.9448 13.9288 16.4903 14.9994 15.7328L19.0271 19.7223C19.214 19.9074 19.4604 20 19.7238 20ZM11.2012 15.5476C8.39721 15.5476 6.07751 13.2499 6.07751 10.4724C6.07751 7.6949 8.39721 5.39716 11.2012 5.39716C14.0053 5.39716 16.325 7.6949 16.325 10.4724C16.325 13.2499 14.0053 15.5476 11.2012 15.5476Z" fill="#CFD8DC"/>
</svg>
