<svg width="21" height="20" viewBox="0 0 21 20" fill="none" xmlns="http://www.w3.org/2000/svg">
<path fill-rule="evenodd" clip-rule="evenodd" d="M18.4273 9.59548L15.8842 5.68594C15.7639 5.50096 15.5592 5.38955 15.3397 5.38955H12.1761V3.98948C12.1761 3.62708 11.8846 3.33331 11.525 3.33331H2.51823C2.15866 3.33331 1.86719 3.62708 1.86719 3.98948V14.6981C1.86719 15.0605 2.15866 15.3543 2.51823 15.3543H4.58333C4.85208 16.118 5.57575 16.6666 6.42448 16.6666C7.27321 16.6666 7.99684 16.118 8.26562 15.3543H12.8629C13.1316 16.118 13.8553 16.6666 14.704 16.6666C15.5527 16.6666 16.2764 16.118 16.5451 15.3543H17.8828C18.2424 15.3543 18.5339 15.0605 18.5339 14.6981V9.95526C18.5339 9.82744 18.4968 9.70237 18.4273 9.59548ZM6.42448 15.3543C6.0655 15.3543 5.77344 15.06 5.77344 14.6981C5.77344 14.3363 6.0655 14.042 6.42448 14.042C6.78346 14.042 7.07552 14.3363 7.07552 14.6981C7.07552 15.06 6.78346 15.3543 6.42448 15.3543ZM10.874 14.042H8.26559C7.99684 13.2783 7.27318 12.7296 6.42445 12.7296C5.57572 12.7296 4.85208 13.2783 4.5833 14.042H3.16927V4.64565H10.874V14.042ZM14.704 15.3543C14.345 15.3543 14.053 15.06 14.053 14.6981C14.053 14.3363 14.345 14.042 14.704 14.042C15.063 14.042 15.355 14.3363 15.355 14.6981C15.355 15.06 15.063 15.3543 14.704 15.3543ZM17.2318 14.042H16.5451C16.2764 13.2783 15.5527 12.7296 14.704 12.7296C13.8552 12.7296 13.1316 13.2783 12.8628 14.042H12.176V6.70188H14.988L17.2318 10.1512V14.042Z" fill="white"/>
</svg>
