<svg width="20" height="20" viewBox="0 0 20 20" fill="none" xmlns="http://www.w3.org/2000/svg">
<path fill-rule="evenodd" clip-rule="evenodd" d="M10.0051 10.009C12.2757 10.009 14.1264 8.10117 14.1264 5.77936C14.1264 3.47554 12.2852 1.66669 10.0051 1.66669C7.74408 1.66669 5.88375 3.51154 5.88375 5.79736C5.89329 8.11017 7.73454 10.009 10.0051 10.009ZM10.0051 8.65013C8.61223 8.65013 7.41971 7.39023 7.41971 5.79736C7.41971 4.23148 8.59315 3.02558 10.0051 3.02558C11.4266 3.02558 12.5905 4.21348 12.5905 5.77936C12.5905 7.37223 11.4075 8.65013 10.0051 8.65013ZM15.9963 18.3334C17.58 18.3334 18.3337 17.8834 18.3337 16.8935C18.3337 14.5357 15.1759 11.1249 10.0051 11.1249C4.82479 11.1249 1.66699 14.5357 1.66699 16.8935C1.66699 17.8834 2.42067 18.3334 4.00433 18.3334H15.9963ZM16.4542 16.9745H3.55594C3.3079 16.9745 3.20296 16.9115 3.20296 16.7225C3.20296 15.2466 5.62616 12.4838 10.0051 12.4838C14.3745 12.4838 16.7977 15.2466 16.7977 16.7225C16.7977 16.9115 16.7023 16.9745 16.4542 16.9745Z" fill="white"/>
</svg>
