<svg width="24" height="24" viewBox="0 0 24 24" fill="none" xmlns="http://www.w3.org/2000/svg">
<path fill-rule="evenodd" clip-rule="evenodd" d="M15.6926 0.151001H8.39193C1.72899 0.151001 0.151367 1.72862 0.151367 8.39156V15.6923C0.151367 22.3552 1.72899 23.9328 8.39193 23.9328H15.6926C22.3556 23.9328 23.9332 22.3552 23.9332 15.6923V8.39156C23.9332 1.72862 22.3556 0.151001 15.6926 0.151001ZM19.0996 7.70345C19.6199 7.70345 19.7374 7.97198 19.6199 8.34121C19.4366 9.18742 17.914 11.4321 17.4424 12.1274C17.3528 12.2595 17.3011 12.3356 17.3038 12.3356C17.1192 12.6377 17.0521 12.772 17.3038 13.1076C17.3948 13.2317 17.5878 13.4211 17.8083 13.6375C18.0352 13.8601 18.2912 14.1113 18.4954 14.3496C19.2339 15.1888 19.8045 15.8937 19.9556 16.3804C20.0898 16.8671 19.8549 17.1188 19.3514 17.1188H17.6227C17.1646 17.1188 16.9284 16.8557 16.4252 16.2951C16.2094 16.0546 15.9445 15.7595 15.5919 15.4069C14.5682 14.4167 14.115 14.2825 13.8633 14.2825C13.5108 14.2825 13.4101 14.3664 13.4101 14.8699V16.4307C13.4101 16.8503 13.2758 17.1021 12.1682 17.1021C10.3388 17.1021 8.30801 15.9944 6.88144 13.93C4.73319 10.909 4.14577 8.62653 4.14577 8.17338C4.14577 7.92163 4.22969 7.68667 4.73319 7.68667H6.47864C6.915 7.68667 7.08284 7.87128 7.25067 8.35799C8.10661 10.8251 9.53319 12.9902 10.1206 12.9902C10.3388 12.9902 10.4395 12.8895 10.4395 12.3356V9.78457C10.398 9.05946 10.1456 8.74353 9.95845 8.50926C9.84236 8.36396 9.75137 8.25008 9.75137 8.08946C9.75137 7.88806 9.9192 7.68667 10.1877 7.68667H12.9066C13.2758 7.68667 13.4101 7.88806 13.4101 8.32443V11.765C13.4101 12.1342 13.5612 12.2685 13.6786 12.2685C13.8968 12.2685 14.0814 12.1342 14.4842 11.7314C15.7262 10.3384 16.6157 8.19016 16.6157 8.19016C16.7332 7.93841 16.9346 7.70345 17.3709 7.70345H19.0996Z" fill="white"/>
</svg>
