<svg width="59" height="24" viewBox="0 0 59 24" fill="none" xmlns="http://www.w3.org/2000/svg">
<rect width="58.5" height="24" rx="4.5" fill="white"/>
<path d="M40.2529 11.3369V18.875H44.451V14.408H49.2089C51.2114 14.3931 52.9124 13.1171 53.5538 11.3369H40.2529Z" fill="#37A72E"/>
<path d="M39.6924 5.125C39.9369 8.20615 42.859 10.639 46.4278 10.639C46.4394 10.639 53.7274 10.639 53.7274 10.639C53.7813 10.3564 53.8095 10.0647 53.8095 9.7665C53.8095 7.21415 51.7452 5.14388 49.1915 5.12513L39.6924 5.125Z" fill="url(#paint0_linear_1702_6033)"/>
<path d="M33.483 10.5586C33.5265 10.4817 33.6089 10.4296 33.7036 10.4296C33.8404 10.4296 33.9517 10.5383 33.9554 10.6738L33.9555 18.875H38.1536V5.125H33.9555C33.4231 5.14268 32.8217 5.53238 32.598 6.01074L29.2572 13.1577C29.2489 13.1869 29.236 13.2142 29.2193 13.2387L29.2182 13.2411C29.1672 13.3135 29.083 13.361 28.9877 13.361C28.8332 13.361 28.7079 13.236 28.7079 13.0819V5.125H24.5098V18.875H28.7079C29.2344 18.846 29.8218 18.4607 30.0421 17.9893L33.4711 10.5841C33.4737 10.5778 33.4766 10.5716 33.4797 10.5656L33.483 10.5586Z" fill="#37A72E"/>
<path d="M15.3493 18.875H12.3293L9.87421 10.7946C9.85054 10.6663 9.73785 10.5692 9.60241 10.5692C9.44977 10.5692 9.32604 10.6926 9.32604 10.8449V18.875H5.12793V5.125H8.7313H9.80446C10.5769 5.125 11.3864 5.72301 11.6121 6.45954L13.6553 13.1259C13.7569 13.4576 13.9218 13.4572 14.0234 13.1259L16.0665 6.45954C16.2924 5.72249 17.1016 5.125 17.8742 5.125L18.947 5.125H22.5501V18.875H18.352V10.8484C18.352 10.6926 18.2282 10.5692 18.0756 10.5692C17.9384 10.5692 17.8246 10.6688 17.8029 10.7995L15.3493 18.875Z" fill="#37A72E"/>
<defs>
<linearGradient id="paint0_linear_1702_6033" x1="39.6924" y1="10.639" x2="53.8095" y2="10.639" gradientUnits="userSpaceOnUse">
<stop stop-color="#00A0E5"/>
<stop offset="1" stop-color="#0077C3"/>
</linearGradient>
</defs>
</svg>
