<svg width="174" height="32" viewBox="0 0 174 32" fill="none" xmlns="http://www.w3.org/2000/svg">
<path fill-rule="evenodd" clip-rule="evenodd" d="M131.404 25.8001C131.621 25.8001 131.729 25.8701 131.729 26.0101C131.729 26.0661 131.724 26.122 131.715 26.178C131.677 26.346 131.649 26.4952 131.63 26.6259L131.524 27.5146L131.515 27.6523L131.506 27.9688L131.504 28.642L131.507 29.0549L131.519 29.5823L131.538 29.9751L131.569 30.3502L131.6 30.6569L131.663 31.202L131.715 31.6221C131.734 31.7528 131.715 31.8484 131.658 31.909C131.602 31.9697 131.442 32 131.179 32H130.403C130.158 32 130.01 31.8227 129.958 31.4682L129.943 31.3347L129.923 31.0536L129.906 30.6755L129.891 30.0204L129.882 29.193L129.882 27.9305L129.895 27.3116L129.91 27.0774L129.938 26.7907L129.958 26.6276L130.007 26.262H127.976C127.844 27.0644 127.778 27.7828 127.778 28.4172C127.778 29.005 127.799 29.5508 127.842 30.0547C127.884 30.5585 127.933 31.0717 127.99 31.5941C127.99 31.7434 127.964 31.8484 127.912 31.909C127.86 31.9697 127.707 32 127.453 32H126.677C126.442 32 126.296 31.8274 126.24 31.4822L126.232 31.4254L126.217 31.2821L126.197 30.9926L126.181 30.6137L126.166 29.9694L126.159 29.3818L126.155 28.4592L126.157 28.036L126.162 27.6549L126.176 27.1625L126.189 26.887L126.215 26.5528L126.236 26.3828C126.244 26.3332 126.252 26.2906 126.261 26.255C126.332 25.9704 126.47 25.8281 126.677 25.8281H130.953L131.207 25.8141L131.404 25.8001ZM79.3921 25.8001C79.4829 25.8001 79.5692 25.8454 79.6509 25.9358C79.7326 26.0263 79.7735 26.1348 79.7735 26.2614C79.7735 26.379 79.7508 26.4875 79.7054 26.587L79.5803 26.7981C79.5706 26.8156 79.5624 26.8312 79.5556 26.8448C79.3831 27.098 79.2378 27.3445 79.1198 27.5841C79.0017 27.8238 78.8928 28.0883 78.7929 28.3778L78.1256 28.2557L78.2204 27.974L78.2618 27.8351C78.289 27.7356 78.3026 27.6316 78.3026 27.5231C78.3026 27.0437 78.1074 26.7136 77.717 26.5327C77.481 26.4242 77.1677 26.3699 76.7773 26.3699H76.5322L76.5186 27.5909L76.5049 28.4727L76.5082 29.2769L76.518 30.0399L76.5302 30.5993L76.5544 31.2304L76.5695 31.4605L76.5866 31.6337C76.6048 31.7603 76.5844 31.853 76.5254 31.9118C76.4663 31.9706 76.3143 32 76.0691 32H75.3065C75.1249 32 75.0159 31.9163 74.9796 31.749C74.973 31.7186 74.967 31.6803 74.9616 31.6342L74.9472 31.4723L74.9364 31.2633L74.9269 30.8615L74.9251 30.5348L74.9388 29.7344V29.1782L74.966 27.6994L75.0069 26.3699H74.7753C74.394 26.3699 74.0898 26.4197 73.8629 26.5192C73.4543 26.7001 73.25 27.0347 73.25 27.5231C73.25 27.5882 73.2645 27.6808 73.2936 27.8009L73.4134 28.2557L72.7461 28.3778C72.6553 28.0914 72.5708 27.8599 72.4926 27.6834L72.414 27.5201L72.336 27.3784L72.1862 27.1319L72.0966 26.9934L71.9469 26.7684L71.8719 26.6463C71.8623 26.6294 71.8541 26.6141 71.8473 26.6006C71.7928 26.492 71.7655 26.379 71.7655 26.2614C71.7655 26.1348 71.8064 26.0263 71.8881 25.9358C71.9698 25.8454 72.0561 25.8001 72.1469 25.8001C72.1787 25.8001 72.2184 25.8024 72.266 25.8069L72.644 25.8544L72.8959 25.8815C73.0866 25.9177 73.3408 25.9403 73.6586 25.9494C73.9764 25.9584 74.2805 25.9629 74.571 25.9629H77.5672C77.9395 25.9629 78.2981 25.9358 78.6431 25.8815L78.8934 25.8544L79.0993 25.8273C79.2219 25.8092 79.3195 25.8001 79.3921 25.8001ZM61.804 25.8001C62.179 25.8001 62.5539 25.8765 62.9289 26.0293C63.1163 26.1057 63.3507 26.2287 63.6319 26.3985C63.8109 26.5343 63.96 26.6022 64.0793 26.6022C64.173 26.6022 64.2625 26.5725 64.3477 26.5131L64.6545 26.8823C64.4585 27.018 64.2646 27.1241 64.0729 27.2005C63.8812 27.2769 63.7001 27.3151 63.5296 27.3151C63.3422 27.3151 63.1611 27.2578 62.9864 27.1432C62.8117 27.0287 62.6477 26.8844 62.4943 26.7104L62.2003 26.3858C62.081 26.2839 61.9617 26.233 61.8423 26.233C61.4674 26.233 61.2075 26.5343 61.0626 27.1369C60.9603 27.5527 60.9092 28.0789 60.9092 28.7155C61.0967 28.5712 61.3481 28.4269 61.6634 28.2826C62.0298 28.1129 62.3153 28.028 62.5198 28.028C62.6732 28.028 62.8309 28.0577 62.9928 28.1171C63.1007 28.1567 63.2068 28.2039 63.3109 28.2586L63.4657 28.3463C63.6191 28.4396 63.7299 28.4863 63.7981 28.4863C63.8748 28.4863 63.9515 28.4694 64.0282 28.4354C64.1049 28.4015 64.1816 28.3548 64.2583 28.2954L64.5011 28.6136L64.3488 28.7878L64.2189 28.9232L64.1624 28.9765C64.1176 29.0168 64.0665 29.0597 64.009 29.1054L63.8173 29.2502L63.6628 29.3561C63.5928 29.4009 63.5335 29.4335 63.4849 29.4539C63.404 29.4878 63.3123 29.5048 63.2101 29.5048C63.0737 29.5048 62.9779 29.4921 62.9225 29.4666L62.8386 29.4218L62.72 29.3484L62.6476 29.3011C62.5198 29.2162 62.392 29.1398 62.2642 29.0719C62.0767 28.9701 61.902 28.9192 61.7401 28.9192C61.5611 28.9192 61.3864 28.9658 61.216 29.0592C61.1308 29.1101 61.0328 29.1823 60.922 29.2756C60.922 29.8867 61.069 30.4002 61.363 30.816C61.657 31.2319 62.0724 31.4399 62.6093 31.4399C62.8394 31.4399 63.078 31.3953 63.3251 31.3062C63.5723 31.2171 63.8577 31.0537 64.1816 30.816L64.3989 31.0707C64.1517 31.3423 63.845 31.565 63.4785 31.739C63.1121 31.913 62.6945 32 62.2258 32C61.493 32 60.8624 31.826 60.334 31.478C59.5841 30.9773 59.2091 30.1965 59.2091 29.1356V28.7282C59.2091 28.0662 59.4094 27.4467 59.8099 26.8695C60.3042 26.1566 60.9689 25.8001 61.804 25.8001ZM157.387 25.8001C157.762 25.8001 158.136 25.8765 158.511 26.0293C158.699 26.1057 158.933 26.2287 159.214 26.3985C159.393 26.5343 159.543 26.6022 159.662 26.6022C159.756 26.6022 159.845 26.5725 159.93 26.5131L160.237 26.8823C160.041 27.018 159.847 27.1241 159.655 27.2005C159.464 27.2769 159.283 27.3151 159.112 27.3151C158.925 27.3151 158.744 27.2578 158.569 27.1432C158.394 27.0287 158.23 26.8844 158.077 26.7104L157.783 26.3858C157.664 26.2839 157.544 26.233 157.425 26.233C157.05 26.233 156.79 26.5343 156.645 27.1369C156.543 27.5527 156.492 28.0789 156.492 28.7155C156.679 28.5712 156.931 28.4269 157.246 28.2826C157.612 28.1129 157.898 28.028 158.102 28.028C158.256 28.028 158.413 28.0577 158.575 28.1171C158.683 28.1567 158.789 28.2039 158.893 28.2586L159.048 28.3463C159.202 28.4396 159.312 28.4863 159.381 28.4863C159.457 28.4863 159.534 28.4694 159.611 28.4354C159.687 28.4015 159.764 28.3548 159.841 28.2954L160.084 28.6136L159.931 28.7878C159.861 28.8652 159.799 28.9281 159.745 28.9765C159.678 29.0369 159.596 29.1034 159.5 29.1758L159.4 29.2502C159.259 29.352 159.148 29.4199 159.067 29.4539C158.987 29.4878 158.895 29.5048 158.793 29.5048C158.656 29.5048 158.56 29.4921 158.505 29.4666L158.421 29.4218L158.303 29.3484C158.28 29.3339 158.256 29.3181 158.23 29.3011C158.102 29.2162 157.975 29.1398 157.847 29.0719C157.659 28.9701 157.485 28.9192 157.323 28.9192C157.144 28.9192 156.969 28.9658 156.799 29.0592C156.713 29.1101 156.615 29.1823 156.505 29.2756C156.505 29.8867 156.652 30.4002 156.946 30.816C157.24 31.2319 157.655 31.4399 158.192 31.4399C158.422 31.4399 158.661 31.3953 158.908 31.3062C159.155 31.2171 159.44 31.0537 159.764 30.816L159.981 31.0707C159.734 31.3423 159.428 31.565 159.061 31.739C158.695 31.913 158.277 32 157.808 32C157.076 32 156.445 31.826 155.917 31.478C155.167 30.9773 154.792 30.1965 154.792 29.1356V28.7282C154.792 28.0662 154.992 27.4467 155.392 26.8695C155.887 26.1566 156.551 25.8001 157.387 25.8001ZM48.5319 25.8001C48.6458 25.8001 48.8524 25.8651 49.1516 25.9949L49.4308 26.1221L49.5874 26.1976C50.1284 26.4625 50.3989 26.6887 50.3989 26.8763C50.3989 26.917 50.356 26.9912 50.2702 27.0989L50.1466 27.2441L50.0694 27.3287C49.9067 27.4999 49.7766 27.667 49.6789 27.8301C49.622 27.9279 49.5813 27.9768 49.5569 27.9768C49.5465 27.9768 49.5248 27.9596 49.4919 27.9252L49.4112 27.8333L49.3007 27.6956C49.1542 27.5081 49.0078 27.3572 48.8614 27.2431C48.6173 27.0556 48.3123 26.9211 47.9462 26.8396C47.873 26.9945 47.8221 27.1779 47.7936 27.3899L47.7663 27.6168C47.7561 27.7166 47.7509 27.7958 47.7509 27.8545C47.7509 28.3926 47.9238 28.9408 48.2695 29.4993C48.6153 30.0577 49.0119 30.4225 49.4593 30.5937C49.565 30.4877 49.6708 30.3614 49.7766 30.2146L49.8711 30.0801L50.1182 29.701L50.4965 30.0068C50.2443 30.553 49.9311 31.0217 49.5569 31.413C49.1827 31.8043 48.8776 32 48.6417 32C48.2756 32 47.8526 31.627 47.3727 30.8811C46.8927 30.1352 46.6527 29.4442 46.6527 28.8084C46.6527 28.148 46.8886 27.4714 47.3605 26.7784C47.8079 26.1262 48.1984 25.8001 48.5319 25.8001ZM89.0935 25.8001C89.1583 25.8094 89.2024 25.8327 89.2256 25.8698C89.2487 25.907 89.2603 25.9488 89.2603 25.9952L89.2569 26.0561C89.2557 26.0681 89.2543 26.0811 89.2526 26.095L89.2294 26.246L89.1908 26.448C89.1444 26.6756 89.1074 26.9635 89.0796 27.3118C89.0517 27.6601 89.0378 27.9829 89.0378 28.2801V28.5727C89.5477 28.5727 90.0367 28.6354 90.5048 28.7607C90.973 28.8861 91.3832 29.0882 91.7354 29.3668C92.1341 29.6826 92.4214 30.0588 92.5976 30.4953C92.7181 30.8018 92.7783 31.1223 92.7783 31.4566C92.7783 31.7074 92.6903 31.87 92.5141 31.9443C92.4369 31.9752 92.3114 31.9933 92.1375 31.9985L91.805 32L91.5825 31.9861L91.2766 31.9721H87.8559C87.6983 31.9721 87.5824 31.9303 87.5083 31.8467C87.4341 31.7632 87.397 31.6331 87.397 31.4566L87.3989 28.9526L87.4072 28.0965L87.4223 27.4025L87.4439 26.8708L87.4646 26.5783L87.4805 26.4341C87.5361 26.0207 87.689 25.8141 87.9393 25.8141L88.3426 25.828H88.7458L88.864 25.8071C88.8965 25.8025 88.922 25.8001 88.9405 25.8001H89.0935ZM115.307 25.8001C115.399 25.8001 115.454 25.823 115.473 25.8687L115.476 26.0423L115.48 26.1085L115.512 26.2536L115.946 27.9533L116.171 28.8036L116.279 29.1923L116.436 29.7295L116.585 30.212L116.658 30.4326L117.186 31.8904C117.186 31.9635 117.099 32 116.925 32H115.588C115.536 32 115.498 31.9649 115.473 31.8947L115.325 31.3628L114.894 29.8707C114.701 30.5103 114.462 30.9991 114.177 31.3372C113.81 31.7758 113.359 31.995 112.827 31.995C112.33 31.995 111.958 31.794 111.71 31.392C111.517 31.0813 111.421 30.7159 111.421 30.2956C111.421 29.8661 111.632 29.3544 112.055 28.7605L112.144 28.6395L112.265 28.4864L112.417 28.3014L112.769 27.8878L113.141 27.4644L113.626 26.9377C113.773 26.7824 113.846 26.659 113.846 26.5677C113.846 26.5128 113.84 26.4512 113.826 26.3826L113.809 26.3095L113.757 26.1359C113.725 26.04 113.709 25.9509 113.709 25.8687C113.709 25.823 113.796 25.8001 113.97 25.8001H115.307ZM9.93988 7.90529e-07L22.1585 0.0109846C23.2197 0.0119385 24.0773 0.867354 24.0741 1.92556L24.0553 7.99872L30.1531 7.99871C31.2138 7.99871 32.0737 8.85898 32.0737 9.91289V22.0854C32.0737 23.1426 31.2156 23.9996 30.1531 23.9996H24.0553V30.0837C24.0553 31.142 23.1931 32 22.1368 32H9.93693C8.87737 32 8.01843 31.1438 8.01843 30.0837V23.9996H1.92061C0.859888 23.9996 0 23.1393 0 22.0854V9.91289C0 8.85572 0.858113 7.99871 1.92061 7.99871L8.01843 7.99872V1.91458C8.01843 0.856233 8.88197 -0.000950198 9.93988 7.90529e-07ZM147.043 25.8001C147.134 25.8001 147.22 25.8454 147.302 25.9358C147.384 26.0263 147.424 26.1348 147.424 26.2614C147.424 26.379 147.402 26.4875 147.356 26.587L147.231 26.7981L147.207 26.8448C147.034 27.098 146.889 27.3445 146.771 27.5841C146.653 27.8238 146.544 28.0883 146.444 28.3778L145.777 28.2557L145.844 28.0581L145.913 27.8351C145.94 27.7356 145.954 27.6316 145.954 27.5231C145.954 27.0437 145.758 26.7136 145.368 26.5327C145.132 26.4242 144.819 26.3699 144.428 26.3699H144.183L144.169 27.5909L144.156 28.4727L144.159 29.2769L144.169 30.0399L144.186 30.7784L144.199 31.094L144.213 31.3526L144.229 31.5542L144.238 31.6337C144.256 31.7603 144.235 31.853 144.176 31.9118C144.117 31.9706 143.965 32 143.72 32H142.957C142.776 32 142.667 31.9163 142.631 31.749C142.624 31.7186 142.618 31.6803 142.613 31.6342L142.598 31.4723L142.587 31.2633L142.578 30.8615L142.576 30.5348L142.59 29.7344V29.1782L142.617 27.6994L142.658 26.3699H142.426C142.045 26.3699 141.741 26.4197 141.514 26.5192C141.105 26.7001 140.901 27.0347 140.901 27.5231C140.901 27.5882 140.915 27.6808 140.945 27.8009L141.064 28.2557L140.397 28.3778C140.288 28.0341 140.188 27.7695 140.097 27.5841C140.037 27.4605 139.95 27.3098 139.837 27.1319L139.598 26.7684L139.523 26.6463C139.513 26.6294 139.505 26.6141 139.498 26.6006C139.444 26.492 139.416 26.379 139.416 26.2614C139.416 26.1348 139.457 26.0263 139.539 25.9358C139.621 25.8454 139.707 25.8001 139.798 25.8001C139.83 25.8001 139.869 25.8024 139.917 25.8069L140.295 25.8544L140.547 25.8815C140.738 25.9177 140.992 25.9403 141.31 25.9494C141.627 25.9584 141.931 25.9629 142.222 25.9629H145.218C145.59 25.9629 145.949 25.9358 146.294 25.8815L146.544 25.8544L146.75 25.8273C146.873 25.8092 146.97 25.8001 147.043 25.8001ZM170.384 25.8069C170.493 25.8341 170.547 25.8975 170.547 25.9971L170.545 26.0452L170.531 26.1855L170.486 26.5064L170.428 26.8662L170.369 27.2708L170.346 27.4639C170.333 27.5958 170.322 27.7468 170.315 27.917L170.303 28.2829C170.3 28.4133 170.299 28.5523 170.299 28.6997H170.407C170.984 27.6404 171.534 26.8708 172.057 26.3909C172.481 26.0016 172.886 25.8069 173.274 25.8069C173.418 25.8069 173.549 25.8273 173.666 25.868C173.783 25.9088 173.842 25.9563 173.842 26.0107C173.842 26.0786 173.822 26.149 173.781 26.222L173.734 26.2959C173.554 26.5494 173.463 26.898 173.463 27.3416L173.45 27.6132L173.125 27.6268C172.999 27.3552 172.801 27.2194 172.53 27.2194C172.314 27.2194 172.064 27.3394 171.78 27.5793C171.496 27.8192 171.255 28.1067 171.056 28.4417L170.786 28.822C171.66 29.0664 172.364 29.4422 172.895 29.9492C173.554 30.574 173.883 31.1987 173.883 31.8234C173.883 31.9321 173.774 31.9864 173.558 31.9864H173.396L172.936 31.9457C172.801 31.9457 172.685 31.9508 172.587 31.961L172.296 31.9997L172.287 32C172.206 32 172.147 31.9638 172.111 31.8914C172.093 31.8551 172.075 31.7997 172.057 31.725L172.021 31.5499L172.003 31.4432C171.913 30.8818 171.719 30.3951 171.421 29.9832C171.124 29.5712 170.75 29.2928 170.299 29.1479L170.302 29.6119L170.31 30.026L170.328 30.4735L170.333 30.5536C170.342 30.7003 170.357 30.8512 170.374 30.9999L170.459 31.6306C170.477 31.7664 170.468 31.8524 170.432 31.8887C170.36 31.9611 170.17 31.9973 169.864 31.9973H169.255C169.03 31.9973 168.895 31.8321 168.85 31.5016L168.836 31.3815L168.81 31.0176L168.787 30.4928L168.773 29.9967L168.761 29.2023L168.758 28.5096L168.76 28.0848L168.768 27.6947L168.78 27.342L168.795 27.0292L168.823 26.6404L168.844 26.4385L168.866 26.2854C168.869 26.2641 168.873 26.2449 168.877 26.228C168.935 25.9563 169.064 25.8205 169.262 25.8205L169.6 25.8477L170.249 25.8069C170.321 25.7979 170.366 25.7979 170.384 25.8069ZM89.0266 29.1475L89.0144 29.2647L89.0017 29.4771L88.9986 29.6233L88.9999 30.0912L89.0104 30.6159L89.0406 31.5124H90.5541L90.7784 31.4984L90.7924 31.0786C90.7924 30.6494 90.7036 30.2903 90.5261 30.0011C90.2365 29.516 89.7367 29.2314 89.0266 29.1475ZM10.1948 0.896279C9.53225 0.895684 8.98097 1.40847 8.92176 2.06343L8.9165 2.18041V8.89477L2.18636 8.89476C1.51427 8.89476 0.962555 9.40832 0.903328 10.0637L0.898065 10.1807V21.8175C0.898065 22.4894 1.41255 23.0393 2.0691 23.0983L2.18636 23.1035H8.9165V29.8185C8.9165 30.4891 9.43122 31.0396 10.0881 31.0987L10.2054 31.104H21.8683C22.5417 31.104 23.0928 30.5906 23.152 29.9355L23.1572 29.8185V23.1035H29.8874C30.5595 23.1035 31.1112 22.59 31.1704 21.9346L31.1757 21.8175V10.1807C31.1757 9.50888 30.661 8.95902 30.0042 8.9L29.8869 8.89476L23.1545 8.89477L23.1752 2.19117C23.1772 1.52172 22.6685 0.971729 22.0172 0.91215L21.9009 0.906802L10.1948 0.896279ZM114.056 27.1011C113.685 27.51 113.378 27.9347 113.134 28.3753C112.889 28.816 112.767 29.1817 112.767 29.4724C112.767 29.6905 112.828 29.8926 112.95 30.0789C113.072 30.2651 113.265 30.3582 113.527 30.3582C113.862 30.3582 114.138 30.231 114.355 29.9766C114.536 29.7677 114.626 29.5451 114.626 29.3089C114.626 29.1635 114.599 29 114.545 28.8183L114.409 28.3685L114.246 27.7962L114.056 27.1011ZM10.4498 1.79256L21.6431 1.80262C21.9675 1.80291 22.2335 2.04736 22.2716 2.36304L22.2763 2.44335L22.2536 9.79082L29.6345 9.79081C29.9645 9.79081 30.2332 10.0322 30.2726 10.3442L30.2776 10.4236V21.5747C30.2776 21.8979 30.0324 22.1636 29.7156 22.2026L29.635 22.2075H22.2592V29.5667C22.2592 29.8958 22.0172 30.1637 21.7045 30.203L21.6249 30.2079H10.4488C10.1249 30.2079 9.85855 29.9633 9.81949 29.6472L9.81456 29.5667V22.2075H2.43876C2.10899 22.2075 1.84046 21.9661 1.8011 21.654L1.79613 21.5747V10.4236C1.79613 10.1004 2.04128 9.83469 2.35815 9.79573L2.43876 9.79081L9.81456 9.79082V2.43304C9.81456 2.07667 10.099 1.79224 10.4498 1.79256ZM102.616 28.165C102.72 28.1815 102.772 28.2433 102.772 28.3503L102.76 28.9062L102.772 29.4622C102.772 29.561 102.72 29.6186 102.616 29.6351H102.507L102.025 29.6104L101.64 29.6228C101.495 29.6228 101.419 29.6042 101.411 29.5672L101.394 29.4404L101.381 29.2892C101.369 29.141 101.363 29.0092 101.363 28.8939L101.37 28.5705L101.382 28.4176C101.389 28.3537 101.399 28.3086 101.411 28.2824C101.443 28.2124 101.519 28.1774 101.64 28.1774L102.025 28.1897L102.507 28.165H102.616ZM15.7411 9.07458C14.5615 9.21853 13.9111 9.43824 13.4621 9.67492L13.2924 9.77036L13.1396 9.86677L12.8657 10.0592L12.6697 10.1998L12.5349 10.2902L12.4644 10.3341C11.8633 10.6979 11.7492 10.9203 11.6891 11.18L11.6636 11.3031C11.5798 11.3868 11.4716 11.4286 11.4023 11.4482L11.3232 11.4671L11.2551 11.4863C11.2084 11.4976 11.146 11.5088 11.0837 11.5086C11.0215 11.5084 10.9591 11.4968 10.9122 11.4852L10.8342 11.4621L10.8662 11.4966C10.8964 11.5262 10.9452 11.5668 11.0003 11.5851C11.0265 11.5938 11.0597 11.5993 11.0939 11.6026L11.1928 11.6077L11.2702 11.6066L11.2506 11.6359C11.2381 11.6516 11.2201 11.6696 11.1984 11.6784L11.1143 11.7017L10.9488 11.7377L11.0325 11.7609C11.0812 11.7715 11.1436 11.7799 11.1984 11.7714C11.2641 11.7612 11.3124 11.7276 11.3405 11.7024L11.3689 11.6724L11.7257 11.4762L11.8198 11.5193L11.9301 11.5645L12.076 11.6175C12.4815 11.7549 13.1757 11.911 13.8159 11.6724C14.1898 11.5331 14.3262 11.4286 14.4178 11.3216L14.5456 11.1547C14.6523 11.0211 14.8243 10.8609 15.3356 10.6207C16.5289 10.0605 17.9325 10.1049 19.034 10.4583C20.1355 10.8118 21.1776 11.6066 21.1776 12.7089C21.1776 13.8112 20.6952 14.689 18.7749 15.2377C18.4951 15.3177 18.1575 15.3879 17.7888 15.4562L16.6157 15.663C16.1102 15.7532 15.5977 15.8525 15.1302 15.9762C14.7589 16.0744 14.4427 16.1808 14.1828 16.2811C13.592 16.5092 12.6869 17.1201 12.2175 17.7799C11.9198 18.1985 11.6765 18.7161 11.6765 19.2899C11.6765 20.0791 11.9303 21.1816 12.8505 21.9191C13.7707 22.6566 14.93 23.04 16.4075 23.04C19.5779 23.04 21.1776 21.0749 21.1776 19.4706C21.1776 17.8664 19.8614 16.9513 19.324 16.8225C19.204 16.8513 19.0753 16.8795 18.9436 16.9067L18.5541 16.9829L17.8794 17.1002L17.4535 17.1667L17.9941 17.37L18.0404 17.389C18.2813 17.4917 18.5509 17.6224 18.7575 17.7655C19.2411 18.1002 19.576 18.5532 19.6119 19.3994C19.6372 19.9968 19.2763 20.4714 19.0618 20.699L18.9693 20.7916L18.8242 20.9153L18.722 20.992L18.5827 21.0876C18.5565 21.1047 18.5289 21.1223 18.4998 21.1403L18.309 21.2513C17.8948 21.4772 17.2905 21.7135 16.5743 21.7135C15.2015 21.7135 13.2443 21.1454 13.2443 19.3604C13.2443 18.2786 14.3861 17.6514 15.3706 17.308L15.6599 17.2133L15.9319 17.1347L16.179 17.071L16.4855 17.0013L16.7966 16.9398L17.6725 16.8137L17.9859 16.7618L18.3329 16.6969L18.7114 16.6165C19.0395 16.5425 19.3982 16.4499 19.7822 16.3325C20.9843 15.965 21.7057 15.0822 22.0231 14.5723L22.114 14.4174L22.1756 14.2974C22.1835 14.2807 22.1902 14.2657 22.1957 14.2527C22.3848 13.8044 22.5049 13.3031 22.4806 12.7267C22.424 11.3848 21.7758 10.6275 21.107 10.1031C20.5925 9.69964 20.0846 9.46108 19.7119 9.32526L19.5055 9.2556L19.2234 9.17619L19.0168 9.12542C18.981 9.11723 18.9446 9.10919 18.9073 9.10136L18.6741 9.05696C18.0244 8.94632 17.1413 8.90372 15.7411 9.07458ZM61.6076 3.35049e-06C61.9286 3.35049e-06 62.1643 0.105586 62.3147 0.316756C62.4652 0.527925 62.5404 0.794397 62.5404 1.11618C62.5404 1.28856 62.4852 1.52004 62.3746 1.81063L62.0538 2.60575L61.9527 2.87817L61.8852 3.08872L61.8103 3.34607L61.728 3.6502C61.6477 3.95589 61.5803 4.30019 61.5258 4.68311L61.4304 5.42334L61.3962 5.65723L61.365 5.84046L61.3368 5.97305C61.2164 6.39539 60.9757 6.60655 60.6146 6.60655C60.3137 6.60655 60.1031 6.48589 59.9827 6.24455L59.9526 6.17094L59.9105 6.04666L59.7902 5.64604L59.7119 5.36971C59.2706 3.78091 58.6688 2.70497 57.9065 2.14185C57.405 1.77985 56.6828 1.59885 55.74 1.59885H53.4531V19.2465H55.8303V20.4532H46.6527V19.2465H49.0298V1.59885H46.6527V0.392173H57.395C57.8363 0.392173 58.2927 0.37709 58.7641 0.346923C59.2355 0.316756 59.6868 0.276534 60.1181 0.226255L60.6174 0.161612L60.8888 0.118516L61.0061 0.0969685L61.1111 0.0754206C61.3418 0.0251422 61.5073 3.35049e-06 61.6076 3.35049e-06ZM76.445 3.35049e-06C77.9908 3.35049e-06 79.38 0.26601 80.6127 0.798031C82.3345 1.5468 83.5183 2.74876 84.164 4.40393H85.4847V5.5862H78.5875V4.40393H79.468C79.2919 3.55664 78.9691 2.867 78.4995 2.33497C77.8147 1.5665 76.9048 1.18227 75.77 1.18227C74.4003 1.18227 73.3633 1.85221 72.6589 3.19211C72.0719 4.29557 71.7784 5.67486 71.7784 7.33004C71.7784 7.80295 71.8077 8.26599 71.8664 8.7192C72.5904 8.06895 73.3339 7.61575 74.097 7.35959C74.8601 7.10344 75.6721 6.97536 76.5331 6.97536C77.6484 6.97536 78.6805 7.26107 79.6295 7.8325C80.5784 8.40393 81.2388 9.1921 81.6106 10.197H82.7552V11.4088H75.8287V10.197H76.8559C76.6994 9.66501 76.445 9.25122 76.0928 8.95565C75.7406 8.66008 75.408 8.5123 75.0949 8.5123C74.5275 8.5123 73.9503 8.6256 73.3633 8.8522C72.7763 9.0788 72.3067 9.399 71.9545 9.81279L72.1258 10.8671L72.2821 11.7472L72.3302 11.9468L72.4593 12.396L72.6589 13.0345C72.9328 13.9409 73.1334 14.7143 73.2606 15.3547C73.3877 15.995 73.4513 16.7389 73.4513 17.5862L73.4477 17.8661C73.4417 18.0792 73.4283 18.242 73.4073 18.3546C73.3926 18.4335 73.367 18.532 73.3303 18.6502L73.2422 18.9129L73.1872 19.064C73.4416 19.2019 73.784 19.2709 74.2144 19.2709C75.8385 19.2709 77.1103 18.7881 78.0299 17.8226C78.6952 17.133 79.155 16.2069 79.4093 15.0443H78.0005V13.8916H85.3086V15.0443L84.2814 15.0739C83.44 16.6108 82.2954 17.8719 80.8475 18.8571C79.3017 19.9211 77.7266 20.4532 76.1222 20.4532C75.3395 20.4532 74.5373 20.4088 73.7155 20.3202C72.8937 20.2315 72.1795 20.0985 71.573 19.9211L71.6056 19.6321L71.6288 19.3286L71.6317 19.2118C71.6317 18.5221 71.4653 17.8522 71.1327 17.2019C70.8979 16.7487 70.4968 16.1675 69.9294 15.4581L69.7184 15.199L69.3224 14.7024C69.1961 14.5416 69.0756 14.3857 68.9608 14.2346L68.6336 13.7956C68.5303 13.6541 68.4327 13.5174 68.3408 13.3854L68.0825 13.0041C67.8011 12.5761 67.5901 12.2069 67.4493 11.8965C67.0873 11.0985 66.9063 10.1379 66.9063 9.01476C66.9063 5.82264 67.9825 3.43843 70.1348 1.86207C71.8371 0.620685 73.9405 3.35049e-06 76.445 3.35049e-06ZM102.937 3.35049e-06V1.21049H101.192C101.533 3.69201 102.025 6.37523 102.666 9.26025C103.158 11.4492 103.734 13.6845 104.394 15.9662L104.767 17.2344L105.321 19.2427H107.404V20.4532H98.9832V19.2427H100.854C100.173 17.1647 99.4575 14.4956 98.8758 11.8931L98.7445 11.2915L98.6082 10.6455L98.3945 9.59313L98.0924 8.03432L97.853 6.74848L97.3716 4.35777C97.0708 4.70074 96.8 5.06893 96.5594 5.46234C96.4906 5.57474 96.4194 5.69497 96.3457 5.82301L96.1173 6.23063L95.8742 6.68518C95.8325 6.76485 95.7901 6.84647 95.7471 6.93006C94.9649 8.3423 94.4034 9.62843 94.0624 10.7885C93.7215 11.9486 93.551 12.9724 93.551 13.8601L93.5538 14.3145L93.5623 14.7245L93.5764 15.09L93.5855 15.2561L93.6081 15.5549C93.6377 15.8776 93.6788 16.1096 93.7315 16.2508C93.8384 16.5378 93.993 16.6972 94.195 16.729L94.273 16.735C94.5538 16.735 94.7443 16.8359 94.8446 17.0376C94.9508 17.2631 95.0257 17.6631 95.0694 18.2377L95.0964 18.7013L95.1116 19.2303L95.1153 19.7007C95.1153 20.0033 95.005 20.2 94.7844 20.2908C94.5638 20.3816 94.3332 20.427 94.0925 20.427C93.932 20.427 93.7515 20.4119 93.551 20.3816L93.0696 20.306C92.9493 20.2858 92.8039 20.2757 92.6334 20.2757H92.2574C91.9565 20.2757 91.7114 20.2862 91.522 20.3072L91.415 20.3211C91.2145 20.3514 91.044 20.3665 90.9036 20.3665C90.6228 20.3665 90.3872 20.2959 90.1966 20.1547C90.0061 20.0134 89.8908 19.7411 89.8507 19.3376V18.3087C89.8507 17.2394 90.0211 16.1853 90.3621 15.1463L90.4758 14.8178L90.6124 14.4557C90.6617 14.3294 90.7149 14.1975 90.7718 14.06L91.0033 13.5182L91.2705 12.9238L91.5099 12.4106L91.7723 11.8638L92.2086 10.9805L92.5281 10.3497L94.4234 6.68796L95.2906 5.05529L95.5525 4.54195L95.5967 4.44855C95.702 4.22537 95.7974 4.0146 95.883 3.81624L96.0409 3.43607C96.3063 2.76943 96.439 2.26967 96.439 1.93679C96.439 1.61399 96.3638 1.41224 96.2134 1.33154C96.063 1.25084 95.8173 1.21049 95.4764 1.21049H93.5209V3.35049e-06H102.937ZM120.728 3.35049e-06V1.23027H118.703V12.2411L125.145 4.33669V1.23027H123.151V3.35049e-06H132.078V1.23027H129.655V19.2229H132.078V20.4532H123.151V19.2229H125.145V6.30511L118.703 14.1788V19.2229H120.728V20.4532H111.77V19.2229H114.193V1.23027H111.77V3.35049e-06H120.728ZM144.584 3.35049e-06C144.785 3.35049e-06 145.016 0.133309 145.277 0.399925C145.384 0.526885 145.496 0.649612 145.612 0.768108L146.193 1.33784L146.52 1.6473L146.695 1.806L147.361 2.3674L148.503 3.31364C150.091 4.62768 151.146 5.83696 151.668 6.94151C152.111 7.85562 152.332 8.91255 152.332 10.1123C152.332 11.3883 152.07 12.5404 151.548 13.5688C151.106 14.4258 150.387 15.3351 149.392 16.2968C148.397 17.2586 147.388 18.206 146.363 19.1391C146.199 19.2937 146.045 19.4347 145.899 19.562L145.62 19.7984C145.084 20.2349 144.688 20.4532 144.433 20.4532C144.212 20.4532 143.931 20.3389 143.589 20.1104L143.36 19.9497L142.939 19.6355L142.536 19.3248L141.509 18.5107L141.031 18.1132L140.377 17.5569L139.981 17.2125L139.619 16.8894L139.289 16.5876L138.856 16.1746L138.608 15.9259L138.393 15.6984L138.211 15.4922L138.132 15.397C137.007 13.9687 136.444 12.35 136.444 10.5408C136.444 8.61736 137.127 6.77012 138.494 4.99903C139.318 3.93257 140.504 2.80899 142.051 1.62826L142.485 1.31046L142.706 1.14241L142.814 1.05535L142.934 0.951247L143.141 0.756999C143.178 0.720816 143.217 0.682728 143.257 0.642735C143.458 0.442773 143.659 0.285663 143.86 0.171399C144.061 0.0571345 144.302 3.35049e-06 144.584 3.35049e-06ZM165.137 3.35049e-06C167.689 3.35049e-06 169.642 0.770525 170.995 2.31159C171.885 3.32596 172.465 4.59391 172.736 6.11547H173.867V7.25663H166.645V6.11547H167.805C167.805 4.2818 167.486 2.95533 166.848 2.13603C166.346 1.49229 165.678 1.17043 164.847 1.17043C163.938 1.17043 163.204 1.56056 162.643 2.34085C161.908 3.37473 161.541 4.97429 161.541 7.13959C161.541 8.23199 161.618 9.27561 161.773 10.2705L161.852 10.7497C161.867 10.8329 161.882 10.9178 161.898 11.0044L162.058 11.8287L162.185 12.4285L162.327 13.0684L162.485 13.7485L162.57 14.1036C162.947 15.6642 163.136 16.9614 163.136 17.9953C163.136 18.2294 163.112 18.4439 163.063 18.639L162.933 19.1657L162.817 19.5753C162.933 19.6729 163.146 19.7216 163.455 19.7216C164.499 19.7216 165.49 19.0194 166.428 17.6149C167.365 16.2104 167.834 14.6596 167.834 12.9624L167.831 12.6601L167.821 12.4163L167.805 12.2309H166.645V11.0605H173.867V12.2309H172.736C172.736 14.5133 171.701 16.4835 169.632 18.1416C167.718 19.6826 165.64 20.4532 163.397 20.4532L163.201 20.452L162.851 20.4429C162.583 20.4314 162.373 20.4105 162.222 20.38C161.981 20.3312 161.696 20.2386 161.367 20.102V19.7216C161.367 19.1364 161.227 18.5805 160.946 18.0538C160.915 17.9953 160.879 17.9315 160.838 17.8623L160.701 17.6391L160.442 17.2446L160.117 16.7786L159.864 16.4282L159.43 15.843L158.931 15.1863C157.983 13.9768 157.345 12.8454 157.017 11.792C156.804 11.1093 156.698 10.29 156.698 9.33413V8.60262C156.698 6.00817 157.539 3.90142 159.221 2.28233C160.806 0.760771 162.778 3.35049e-06 165.137 3.35049e-06ZM12.0476 17.4733L12.1413 17.3774L12.0375 17.4116L11.9186 17.4566L11.7647 17.522C11.4267 17.6741 10.9222 17.9572 10.5124 18.4223C10.0761 18.9174 9.9226 19.445 9.86863 19.7616L9.84909 19.9012C9.84693 19.9211 9.84526 19.9394 9.84395 19.9557L9.83942 20.0523L9.91399 19.9495L10.0048 19.8369C10.0227 19.8156 10.0421 19.7932 10.0628 19.7699L10.2033 19.6214C10.4637 19.362 10.8535 19.0582 11.3392 18.9315C11.3987 18.3435 11.7242 17.8592 11.9418 17.5949L12.0476 17.4733ZM142.886 3.3938C141.834 3.53057 140.978 4.00923 140.319 4.8298C139.659 5.65037 139.329 6.52954 139.329 7.46734C139.329 8.32699 139.71 9.29408 140.473 10.3686C140.953 11.0372 141.616 11.802 142.463 12.6628L142.943 13.1418L143.46 13.64L144.271 14.4029L144.576 14.6978L144.849 14.9682L145.088 15.2141L145.294 15.4355L145.467 15.6325L145.607 15.8049C145.917 16.2054 146.102 16.6401 146.164 17.109C147.03 16.7769 147.819 16.2591 148.53 15.5558C149.182 14.9111 149.596 14.2171 149.772 13.4739L149.814 13.2699C149.855 13.0746 149.876 12.9183 149.876 12.801C149.876 12.7073 149.862 12.5885 149.836 12.4447L149.814 12.3321C149.669 11.5116 149.041 10.4761 147.927 9.2257L145.917 7.08636L144.21 5.30765L144.123 5.21078C143.463 4.50743 143.051 3.90178 142.886 3.3938ZM20.7099 12.6841H9.33368L9.33569 12.7523L9.34443 12.8311L9.36382 12.9351L9.38469 13.0168L9.41333 13.1071L9.45097 13.2051L9.49883 13.3097C9.50772 13.3276 9.51709 13.3457 9.52696 13.3641L9.59243 13.4767C9.60441 13.4958 9.61694 13.5151 9.63005 13.5346L9.71587 13.6529L9.81677 13.7737L9.93398 13.8961L10.0687 14.0189C10.2846 14.203 10.5637 14.3854 10.9246 14.5504L11.1775 14.6577C12.0181 14.9883 13.2415 15.2265 15.0218 15.2265C18.4542 15.2265 19.8164 14.341 20.3564 13.6152L20.439 13.4959L20.5077 13.3806C20.518 13.3618 20.5279 13.3432 20.5372 13.3248L20.5873 13.2176L20.6268 13.1171L20.6567 13.0244L20.6868 12.9023L20.7028 12.8038L20.7101 12.6921L20.7099 12.6841ZM13.8631 10.0475C14.073 10.0162 14.1461 10.0793 14.1747 10.2029C14.2033 10.3266 14.1464 10.4496 13.9895 10.5035C13.8326 10.5573 13.4788 10.6251 13.4387 10.4493C13.3987 10.2735 13.6533 10.0788 13.8631 10.0475Z" fill="#01A54E"/>
</svg>
