<svg width="52" height="24" viewBox="0 0 52 24" fill="none" xmlns="http://www.w3.org/2000/svg">
<rect width="51.75" height="24" rx="4.5" fill="white"/>
<path fill-rule="evenodd" clip-rule="evenodd" d="M26.5889 9.52081C26.5652 11.4361 28.2553 12.505 29.5284 13.1405C30.8366 13.7926 31.276 14.2107 31.271 14.7937C31.261 15.6862 30.2274 16.08 29.2601 16.0953C27.5725 16.1222 26.5914 15.6286 25.8113 15.2553L25.2034 18.1692C25.986 18.5387 27.4352 18.8609 28.938 18.875C32.4655 18.875 34.7735 17.0914 34.7859 14.3258C34.7997 10.816 30.0465 10.6217 30.0789 9.05284C30.0901 8.5772 30.5333 8.0696 31.5044 7.94046C31.9849 7.87526 33.3118 7.82539 34.8159 8.53501L35.4063 5.71571C34.5975 5.41396 33.5577 5.125 32.2633 5.125C28.943 5.125 26.6076 6.93293 26.5889 9.52081ZM41.0795 5.36793C40.4354 5.36793 39.8924 5.75279 39.6503 6.3435L34.6112 18.6679H38.1362L38.8377 16.6822H43.1453L43.5522 18.6679H46.659L43.9479 5.36793H41.0795ZM41.5725 8.96078L42.5898 13.955H39.8038L41.5725 8.96078ZM22.315 5.36793L19.5365 18.6679H22.8954L25.6727 5.36793H22.315ZM17.3458 5.36793L13.8496 14.4204L12.4353 6.72324C12.2693 5.86403 11.614 5.36793 10.8863 5.36793H5.17071L5.09082 5.75407C6.26415 6.0149 7.59724 6.43556 8.40484 6.88562C8.89914 7.16052 9.04018 7.4009 9.20245 8.05426L11.8811 18.6679H15.4311L20.8733 5.36793H17.3458Z" fill="#1A1F71"/>
</svg>
