<svg width="51" height="24" viewBox="0 0 51 24" fill="none" xmlns="http://www.w3.org/2000/svg">
<rect width="51" height="24" rx="4.5" fill="white"/>
<rect x="21.9668" y="6.09302" width="7.17104" height="11.7124" fill="#FF5F00"/>
<path d="M22.7058 11.9503C22.704 9.66512 23.753 7.50602 25.5506 6.09512C22.4968 3.69513 18.1114 4.04471 15.4763 6.89818C12.8412 9.75165 12.8412 14.151 15.4763 17.0045C18.1114 19.8579 22.4968 20.2075 25.5506 17.8075C23.7525 16.3962 22.7034 14.2362 22.7058 11.9503Z" fill="#EB001B"/>
<path fill-rule="evenodd" clip-rule="evenodd" d="M36.8908 16.3261V16.5661H36.8453V16.3261H36.748V16.2765H36.9943V16.3261H36.8908ZM37.3687 16.2765V16.5661H37.317V16.3468L37.2363 16.5351H37.1805L37.0998 16.3468V16.5661H37.046V16.2765H37.1205L37.2074 16.4834L37.2943 16.2765H37.3687Z" fill="#F79E1B"/>
<path d="M37.6025 11.9502C37.6024 14.802 35.9741 17.4033 33.4091 18.6495C30.844 19.8957 27.7926 19.5679 25.5508 17.8054C27.3476 16.3933 28.3967 14.2345 28.3967 11.9492C28.3967 9.6639 27.3476 7.5051 25.5508 6.09299C27.7926 4.33046 30.844 4.00269 33.4091 5.24888C35.9741 6.49506 37.6024 9.09643 37.6025 11.9482V11.9502Z" fill="#F79E1B"/>
</svg>
