<svg width="66" height="80" viewBox="0 0 66 80" fill="none" xmlns="http://www.w3.org/2000/svg">
<g filter="url(#filter0_d_602_6125)">
<path d="M33.0089 63C33.4414 63.0005 33.8329 62.8174 34.1076 62.523M33.0089 63L33.01 62M33.0089 63C33.0093 63 33.0096 63 33.01 63V62M33.0089 63C32.2177 62.9995 31.525 62.4006 31.4909 61.5657M34.1076 62.523L33.01 62M34.1076 62.523H34.4679L34.511 61.5681C34.5751 60.1472 34.9629 59.0563 35.6134 58.2285C36.2604 57.4051 37.2306 56.7614 38.6036 56.3417C49.1568 53.818 57 44.3257 57 33C57 19.7447 46.2553 9 33 9C19.7447 9 9 19.7447 9 33C9 44.3257 16.8432 53.818 27.3964 56.3417M34.1076 62.523L27.3964 56.3417M33.01 62C32.72 62 32.5 61.79 32.49 61.523M31.4909 61.5657C31.491 61.5667 31.491 61.5677 31.491 61.5687L32.49 61.523M31.4909 61.5657C31.4254 60.1455 31.0372 59.0555 30.387 58.2283C29.7397 57.4049 28.7695 56.7615 27.3964 56.3417M31.4909 61.5657C31.4908 61.5639 31.4908 61.5622 31.4907 61.5604L32.49 61.523M32.49 61.523L27.3964 56.3417" fill="#263238" stroke="white" stroke-width="2"/>
<path fill-rule="evenodd" clip-rule="evenodd" d="M33.51 61.523C33.4977 61.7901 33.2774 62.0003 33.01 62C32.72 62 32.5 61.79 32.49 61.523C32.345 58.355 30.734 56.306 27.658 55.376C17.53 52.968 10 43.863 10 33C10 20.297 20.297 10 33 10C45.703 10 56 20.297 56 33C56 43.863 48.47 52.968 38.342 55.376C35.266 56.306 33.655 58.356 33.512 61.523H33.51Z" fill="#01A54E"/>
<path fill-rule="evenodd" clip-rule="evenodd" d="M39 26.999L43.5619 26.999C44.3561 26.999 45 27.6429 45 28.4371V37.5616C45 38.3558 44.3561 38.9997 43.5619 38.9997H39V43.5619C39 44.3561 38.3561 45 37.5619 45H28.4381C27.6439 45 27 44.3561 27 43.5619V38.9997H22.4381C21.6439 38.9997 21 38.3558 21 37.5616V28.4371C21 27.6429 21.6439 26.999 22.4381 26.999L27 26.999V22.4381C27 21.6434 27.6447 20.9993 28.4394 21L37.5772 21.0082C38.3727 21.009 39.0165 21.6553 39.014 22.4508L39 26.999ZM38.326 27.6711L43.3693 27.6711C43.8988 27.6711 44.3281 28.1003 44.3281 28.6298V37.3689C44.3281 37.8984 43.8988 38.3276 43.3693 38.3276H38.3281V43.3692C38.3281 43.8987 37.8988 44.328 37.3693 44.328H28.6308C28.1013 44.328 27.6721 43.8987 27.6721 43.3692V38.3276H22.6308C22.1013 38.3276 21.6721 37.8984 21.6721 37.3689V28.6298C21.6721 28.1003 22.1013 27.6711 22.6308 27.6711L27.6721 27.6711V22.631C27.6721 22.1011 28.1018 21.6717 28.6317 21.6722L37.3836 21.6801C37.9139 21.6806 38.3431 22.1115 38.3415 22.6418L38.326 27.6711ZM22.8235 28.3431L28.3441 28.3431V22.8238C28.3441 22.5589 28.559 22.3442 28.8239 22.3444L37.19 22.352C37.4552 22.3522 37.6698 22.5677 37.669 22.8328L37.652 28.3431L43.1768 28.3431C43.4415 28.3431 43.6561 28.5577 43.6561 28.8225V37.1762C43.6561 37.441 43.4415 37.6556 43.1768 37.6556H37.6561V43.1766C37.6561 43.4413 37.4415 43.6559 37.1768 43.6559H28.8235C28.5588 43.6559 28.3441 43.4413 28.3441 43.1766V37.6556H22.8235C22.5588 37.6556 22.3441 37.441 22.3441 37.1762V28.8225C22.3441 28.5577 22.5588 28.3431 22.8235 28.3431ZM29.7277 29.4774L29.7277 29.4773C29.7741 29.239 29.808 29.0654 30.3269 28.7506C30.4299 28.6881 30.5213 28.6215 30.6151 28.5532L30.6151 28.5532L30.6151 28.5532L30.6151 28.5531C30.994 28.277 31.4109 27.9732 32.7788 27.8059C34.2849 27.6217 34.9915 27.7683 35.5289 27.9218C35.8013 27.9996 36.2935 28.184 36.7939 28.5773C37.2944 28.9707 37.7794 29.5386 37.8218 30.5451C37.84 30.9773 37.7501 31.3533 37.6086 31.6896C37.5141 31.914 36.952 32.8972 35.8026 33.2494C34.925 33.5183 34.224 33.6136 33.8146 33.6692L33.8146 33.6692C33.6879 33.6864 33.5891 33.6999 33.5216 33.7135L33.4867 33.7204C33.0846 33.7993 30.9105 34.2261 30.9105 35.5203C30.9105 36.8591 32.375 37.2851 33.4022 37.2851C34.4295 37.2851 35.1489 36.6343 35.1489 36.6343C35.1489 36.6343 35.702 36.1843 35.6752 35.5496C35.6483 34.9149 35.3977 34.5752 35.0359 34.3241C34.8813 34.2168 34.6796 34.1188 34.4993 34.0417C34.4073 34.0024 34.0601 33.875 34.0601 33.875C34.0601 33.875 34.8913 33.7533 35.4598 33.6169C35.8619 33.7135 36.8468 34.3998 36.8468 35.603C36.8468 36.8062 35.6497 38.28 33.2774 38.28C32.1718 38.28 31.3044 37.9924 30.6158 37.4393C29.9272 36.8862 29.7373 36.0593 29.7373 35.4674C29.7373 35.0371 29.9194 34.6489 30.1422 34.335C30.4934 33.8401 31.1707 33.3819 31.6127 33.2109C31.8072 33.1356 32.0438 33.0558 32.3217 32.9821C32.7856 32.8592 33.3088 32.7682 33.8004 32.6828C34.2725 32.6008 34.7155 32.5238 35.0489 32.4283C36.4858 32.0168 36.8468 31.3584 36.8468 30.5317C36.8468 29.705 36.067 29.1088 35.2428 28.8438C34.4186 28.5787 33.3683 28.5454 32.4754 28.9656C32.0186 29.1805 31.9238 29.3102 31.8418 29.4223C31.7635 29.5293 31.6969 29.6203 31.3382 29.7543C30.6037 30.0287 29.7741 29.6071 29.7741 29.6071L29.5072 29.7543C29.5072 29.7543 29.4615 29.8158 29.3795 29.8286C29.2975 29.8413 29.1928 29.8033 29.1928 29.8033C29.1928 29.8033 29.347 29.7721 29.3795 29.7588C29.4121 29.7455 29.4333 29.705 29.4333 29.705C29.4333 29.705 29.3 29.7116 29.2313 29.6888C29.1627 29.666 29.107 29.5966 29.107 29.5966C29.107 29.5966 29.2006 29.6312 29.2938 29.6315C29.387 29.6318 29.4803 29.5978 29.4803 29.5978C29.4803 29.5978 29.6274 29.5777 29.7277 29.4774ZM28.8659 34.8168C28.3547 35.3981 28.3623 36.0393 28.3623 36.0393C28.3623 36.0393 28.7941 35.3791 29.4846 35.1986C29.5526 34.5251 30.0848 34.033 30.0848 34.033C30.0848 34.033 29.377 34.2354 28.8659 34.8168ZM36.4965 30.5131C36.4965 30.5131 36.5923 32.4199 32.2402 32.4199C27.8882 32.4199 27.984 30.5131 27.984 30.5131H36.4965ZM31.3681 28.905C31.5236 28.8691 31.6316 28.7615 31.6093 28.6647C31.5869 28.5679 31.4427 28.5186 31.2871 28.5545C31.1316 28.5904 31.0236 28.698 31.0459 28.7947C31.0683 28.8915 31.2125 28.9409 31.3681 28.905Z" fill="white"/>
<path fill-rule="evenodd" clip-rule="evenodd" d="M33 72C30.79 72 29 70.21 29 68C29 65.79 30.79 64 33 64C35.21 64 37 65.79 37 68C37 70.21 35.21 72 33 72Z" fill="white"/>
<path fill-rule="evenodd" clip-rule="evenodd" d="M32.9997 70C33.7247 70.0164 34.4018 69.639 34.7692 69.0138C35.1366 68.3886 35.1368 67.6134 34.7697 66.988C34.4026 66.3626 33.7257 65.9849 33.0007 66.001C31.9138 66.025 31.0452 66.9128 31.0449 68C31.0447 69.0871 31.9128 69.9754 32.9997 70Z" fill="#01A54E"/>
</g>
<defs>
<filter id="filter0_d_602_6125" x="-7" y="0" width="80" height="80" filterUnits="userSpaceOnUse" color-interpolation-filters="sRGB">
<feFlood flood-opacity="0" result="BackgroundImageFix"/>
<feColorMatrix in="SourceAlpha" type="matrix" values="0 0 0 0 0 0 0 0 0 0 0 0 0 0 0 0 0 0 127 0" result="hardAlpha"/>
<feOffset/>
<feGaussianBlur stdDeviation="4"/>
<feColorMatrix type="matrix" values="0 0 0 0 0 0 0 0 0 0 0 0 0 0 0 0 0 0 0.1 0"/>
<feBlend mode="normal" in2="BackgroundImageFix" result="effect1_dropShadow_602_6125"/>
<feBlend mode="normal" in="SourceGraphic" in2="effect1_dropShadow_602_6125" result="shape"/>
</filter>
</defs>
</svg>
